<svg xmlns="http://www.w3.org/2000/svg" width="1200" height="412" fill="none"><path stroke="url(#a)" stroke-linecap="round" stroke-linejoin="round" stroke-miterlimit="10" d="M1187.83 4.067 1178.38 1m9.45 3.067h-28.01m28.01 0 9.77 3.169m-9.77-3.169h19.84M1178.38 1l3.44.001 3.4.007 3.34.019 3.22.036 3.09.06 2.92.09 2.71.125 2.51.159 2.16.22 1.96.255.54.09v2.005M1178.38 1h-27.57m0 0h-27.56m27.56 0 9.01 3.067M1123.25 1h-27.57m27.57 0 8.55 3.067M1095.68 1h-27.56m27.56 0 8.1 3.067M1068.12 1h-27.57m27.57 0 7.65 3.067M1040.55 1h-27.57m27.57 0 7.2 3.067M1012.98 1h-27.562m27.562 0 6.76 3.067M985.418 1h-27.565m27.565 0 6.303 3.067M957.853 1h-27.566m27.566 0 5.852 3.067M930.287 1h-27.565m27.565 0 5.403 3.067M902.722 1h-27.566m27.566 0 4.952 3.067M875.156 1h-27.565m27.565 0 4.502 3.067M847.591 1h-27.566m27.566 0 1 .758 1.517 1.147 1.534 1.162M820.025 1h-27.566m27.566 0 .889.758 2.712 2.31M792.459 1h-27.565m27.565 0 3.151 3.067M764.894 1h-27.566m27.566 0 1.002 1.139 1.016 1.152.34.387.343.39M737.328 1h-27.566m27.566 0 .835 1.139.282.382.282.384.852 1.162M709.762 1h-27.565m27.565 0 1.801 3.067M682.197 1l.167.378.166.38.846 1.92.172.39M682.197 1h-27.565m0 0h-27.567m27.567 0 .9 3.067M627.065 1H599.5m27.565 0 .168 1.139.283 1.928M599.5 1h-27.565M599.5 1v3.067M571.935 1h-27.566m27.566 0-.168 1.139-.283 1.928M544.369 1h-27.566m27.566 0-.901 3.067M516.803 1l-.166.378-.167.38-.846 1.92-.171.39M516.803 1h-27.565m0 0h-27.566m27.566 0-1.573 2.678-.228.39M461.672 1h-27.566m27.566 0-.835 1.139-.282.382-.565.77-.283.387-.286.39M434.106 1h-27.565m27.565 0-1.002 1.139-1.015 1.152-.341.387-.343.39M406.541 1h-27.566m27.566 0-3.151 3.067M378.975 1h-27.566m27.566 0-.889.758-2.712 2.31M351.409 1h-27.565m27.565 0-4.051 3.067M323.844 1h-27.565m27.565 0-4.502 3.067M296.279 1h-27.567m27.567 0-4.953 3.067M268.712 1h-27.565m27.565 0-5.401 3.067M241.147 1h-27.565m27.565 0-5.852 3.067M213.582 1h-27.566m27.566 0-6.303 3.067M186.016 1H158.45m27.566 0-6.753 3.067M158.45 1h-27.565m27.565 0-7.203 3.067M130.885 1h-27.566m27.566 0-7.654 3.067M103.319 1H75.753m27.566 0-8.104 3.067M75.753 1H48.188m27.565 0L67.2 4.067M48.188 1H20.622m27.566 0-9.004 3.067M20.622 1l-3.44.001-3.404.007-3.334.019-3.229.036-3.089.06-2.916.09-2.708.125-2.514.159-2.157.22-1.964.255-.54.09v2.005M20.623 1l-9.454 3.067m56.032 0h28.015m-28.015 0H39.184m28.016 0-8.838 3.169m36.853-3.169-8.372 3.169m8.372-3.169h28.016m56.032 0h28.016m-28.016 0h-28.016m28.016 0-1.723.783-5.254 2.386m34.993-3.169-6.512 3.169m6.512-3.169h28.016m56.031 0h28.016m-28.016 0h-28.015m28.015 0-1.263.783-.636.393-3.218 1.993m33.133-3.169-.573.39-.575.393-3.503 2.386m4.651-3.169h28.016m56.032 0-.402.39-2.855 2.779m3.257-3.169h28.015m-28.015 0h-28.016m56.031 0-.689.783-.347.393-.348.395-1.407 1.598m2.791-3.169h28.016m56.032 0h28.015m-28.015 0h-28.016m28.016 0-1.395 3.169m29.41-3.169-.114.39-.115.393-.116.393-.35 1.19-.235.803m.93-3.169h28.016m56.032 0h28.016m-28.016 0H599.5m28.016 0 .465 3.169m27.551-3.169.114.39.115.393.116.393.585 1.993m-.93-3.169h28.016m56.031 0h28.016m-28.016 0h-28.016m28.016 0 .574.783 1.163 1.583.294.4.295.403m25.69-3.169.689.783.347.393.348.395 1.407 1.598m-2.791-3.169h28.015m56.032 0h28.016m-28.016 0h-28.016m28.016 0 1.034.783.52.393 2.632 1.993m23.83-3.169.573.39.575.393 3.503 2.386m-4.651-3.169h28.016m56.031 0h28.016m-28.016 0H935.69m28.015 0 1.494.783.751.393 3.802 1.993m21.969-3.169 6.512 3.169m-6.512-3.169h28.019m56.03 0h28.01m-28.01 0h-28.02m28.02 0 7.91 3.169m20.1-3.169 8.38 3.169m-8.38-3.169h28.02M-8.77 32.75h.098m28.1 0 10.696-4.048M19.428 32.75 8.322 36.953m11.106-4.203h32.226m-32.226 0h-28.1m38.796-4.048H-1.508m31.632 0 10.309-3.901m-10.31 3.901h31.633m-63.264 0 10.882-3.901m-10.882 3.901h-7.164m7.164 0-7.164 2.568m38.668-13.864H59.97m-29.974 0 9.78-3.506m-9.78 3.506H.022m29.974 0-10.128 3.632m40.102-3.632 9.266-3.506m-9.266 3.506-9.595 3.632m9.595-3.632h29.974M39.776 13.9h29.46m-29.46 0 9.45-3.388m-9.45 3.388H10.317m58.919 0h29.459m-29.46 0 8.953-3.388M-8.981 96.645h.309m25.694 0 13.793-6.71m-13.793 6.71-14.478 7.046m14.478-7.046h41.606m-41.606 0H-8.672m39.487-6.71 13.155-6.402m-13.155 6.401h40.62m-40.62 0H-8.672m12.961-6.4h39.68m-39.68 0 13.457-6.112M4.29 83.533H-8.672m12.961 0L-8.672 89.42m39.28-17.84h37.926m-37.926 0 12.305-5.588M30.608 71.58H-7.318m37.926 0-12.862 5.842m50.788-5.842 11.485-5.588M68.534 71.58l-12.005 5.842m12.005-5.842h37.926m-63.547-5.588H80.02m-37.106 0H5.808m37.105 0 11.785-5.352m25.321 5.352 10.999-5.352m-10.999 5.352h37.106M76.83 50.588h34.845m-34.845 0 10.406-4.726M76.83 50.588H41.986m34.844 0L65.993 55.51m45.682-4.922 9.711-4.726m-9.711 4.726-10.114 4.922m10.114-4.922h34.845m-59.284-4.726h34.15m-34.15 0H53.085m34.15 0 10-4.541m24.151 4.541 9.333-4.541m-9.333 4.541h34.152M116.106 32.75h32.226m-32.226 0 8.914-4.048m-8.914 4.048H83.88m32.226 0-9.255 4.203m41.481-4.203 8.32-4.048m-8.32 4.048-8.638 4.203m8.638-4.203h32.226m-55.538-4.048h31.632m-31.632 0H93.388m31.632 0 8.591-3.901m23.041 3.901 8.018-3.901m-8.018 3.901h31.632m-38.393-11.296h29.974m-29.974 0 7.722-3.506m-7.722 3.506h-29.973m29.973 0-7.995 3.632m37.969-3.632 7.207-3.506m-7.207 3.506-7.462 3.632m7.462-3.632h29.974M157.613 13.9h29.459m-29.459 0 7.461-3.388m-7.461 3.388h-29.459m58.918 0h29.459m-29.459 0 6.963-3.388M12.643 213.002l19.413-13.224m-19.413 13.224-20.788 14.162m20.788-14.162H71.33m-58.686 0H-8.672m40.727-13.224 18.17-12.378m-18.17 12.378H88.8m-56.744 0H-8.672m40.333-34.899h51.622m-51.622 0 16.589-10.273m-16.59 10.273-17.618 10.912m17.618-10.912H-8.672m91.955 0 15.08-10.273m-15.08 10.273-16.016 10.912m16.016-10.912h51.622M48.25 154.606h50.113m-50.113 0H-1.863m50.113 0 15.647-9.69m34.466 9.69 14.225-9.69m-14.225 9.69h50.114m-55.808-27.509h46.076m-46.076 0 13.257-8.21m-13.257 8.21H46.593m46.076 0-13.989 8.664m60.065-8.664 12.052-8.21m-12.052 8.21-12.718 8.664m12.718-8.664h46.075m-78.894-8.21h44.871m-44.871 0h-44.87m44.87 0 12.581-7.792m32.29 7.792 11.437-7.792m-11.437 7.792h44.87m-53.828-22.242h41.606m-41.606 0 10.837-6.71m-10.837 6.71h-41.606m41.606 0-11.376 7.046m52.982-7.046 9.852-6.71m-9.852 6.71-10.342 7.046m10.342-7.046h41.605m-72.374-6.71h40.621m-40.621 0h-40.62m40.62 0 10.336-6.402m30.285 6.401 9.396-6.4m-9.396 6.4h40.62M182.313 71.58h37.926m-37.926 0 9.023-5.588m-9.023 5.588h-37.927m37.927 0-9.433 5.842m47.359-5.842 8.204-5.588m-8.204 5.588-8.575 5.842m8.575-5.842h37.925m-66.828-5.588h37.107m-37.107 0h-37.105m37.105 0 8.642-5.352m28.465 5.352 7.856-5.352m-7.856 5.352h37.105m-49.339-15.404h34.844m-34.844 0 7.63-4.726m-7.63 4.726h-34.845m34.845 0-7.947 4.922m42.791-4.922.883-.601 6.054-4.125m-6.937 4.726-7.224 4.922m7.224-4.922h34.845m-62.059-4.726h34.151m-34.151 0h-34.15m34.15 0 7.333-4.541m26.818 4.541 6.667-4.541m-6.667 4.541h34.152M245.011 32.75h32.227m-32.227 0 6.537-4.048m-6.537 4.048h-32.226m32.226 0-6.787 4.203m39.014-4.203 5.942-4.048m-5.942 4.048-2.287 1.558-3.884 2.645m6.171-4.203h32.226m-57.916-4.048h31.632m-31.632 0h-31.632m31.632 0 6.3-3.901m25.332 3.901 5.727-3.901m-5.727 3.901h31.632m-45.025-11.296h29.974m-29.974 0 5.662-3.506m-5.662 3.506h-29.973m29.973 0-5.863 3.632m35.837-3.632 3.878-2.64.636-.435.634-.431m-5.148 3.506-5.33 3.632m5.33-3.632h29.974M275.449 13.9h29.46m-29.46 0 5.471-3.388m-5.471 3.388H245.99m58.919 0h29.459m-29.459 0 4.973-3.388M33.906 363.648h80.799m-80.8 0 25.443-24.76m-25.442 24.76L5.949 390.856m27.957-27.208H-8.672m123.377 0 21.808-24.76m-21.808 24.76-23.963 27.208m23.963-27.208h80.799m-136.156-24.76h77.165m-77.165 0L82.6 316.259m-23.252 22.629h-68.02m145.185 0 19.93-22.629m-19.93 22.629h77.164m-90.104-62.504h67.99m-67.99 0 18.144-17.658m-18.144 17.658H55.584m67.989 0-19.641 19.115m87.631-19.115 15.552-17.658m-15.552 17.658-16.835 19.115m16.835-19.115h67.99m-117.836-17.658h65.398m-65.398 0H76.32m65.397 0 16.812-16.36m48.586 16.36 14.41-16.36m-14.41 16.36h65.397M188.7 213.002h58.686m-58.686 0 13.589-13.224M188.7 213.002h-58.686m58.686 0-14.551 14.162m73.237-14.162 11.648-13.224m-11.648 13.224-12.473 14.162m12.473-14.162h58.685m-103.782-13.224h56.745m-56.745 0h-56.745m56.745 0 12.719-12.378m44.026 12.378 10.901-12.378m-10.901 12.378h56.744m-77.63-34.899h51.622m-51.622 0 10.557-10.273m-10.557 10.273h-51.621m51.621 0-11.211 10.912m62.833-10.912 9.048-10.273m-9.048 10.273-9.61 10.912m9.61-10.912h51.622m-92.687-10.273h50.113m-50.113 0h-50.114m50.114 0 9.957-9.69m40.156 9.69 8.535-9.69m-8.535 9.69h50.114m-71.961-27.509h46.076m-46.076 0 8.436-8.21m-8.436 8.21h-46.075m46.075 0-8.902 8.664m54.978-8.664 7.231-8.21m-7.231 8.21-7.631 8.664m7.631-8.664h46.075m-83.715-8.21h44.871m-44.871 0h-44.87m44.87 0 8.007-7.792m36.864 7.792 6.862-7.792m-6.862 7.792h44.87m-66.887-22.242h41.606m-41.606 0 6.897-6.71m-6.897 6.71h-41.606m41.606 0-7.239 7.046m48.845-7.046 5.911-6.71m-5.911 6.71-6.205 7.046m6.205-7.046h41.605m-76.314-6.71h40.62m-40.62 0h-40.621m40.621 0 6.577-6.402m34.043 6.401 5.638-6.4m-5.638 6.4h40.62M334.017 71.58h37.926m-37.926 0 5.743-5.588m-5.743 5.588h-37.926m37.926 0-6.002 5.842m43.928-5.842 4.922-5.588m-4.922 5.588-5.144 5.842m5.144-5.842h37.926m-70.109-5.588h37.105m-37.105 0h-37.106m37.106 0 5.499-5.352m31.606 5.352 4.714-5.352m-4.714 5.352h37.106m-58.384-15.404h34.846m-34.846 0 4.856-4.726m-4.856 4.726h-34.844m34.844 0-5.057 4.922m39.903-4.922-.533.604-3.803 4.318m4.336-4.922 4.161-4.726m-4.161 4.726h34.844m-64.834-4.726h34.151m-34.151 0h-34.151m34.151 0 4.667-4.541m29.484 4.541 4-4.541m-4 4.541h34.151M373.916 32.75h32.226m-32.226 0 4.16-4.048m-4.16 4.048H341.69m32.226 0-4.318 4.203m36.544-4.203 3.566-4.048m-3.566 4.048-1.371 1.558-.926 1.05-1.404 1.595m3.701-4.203h32.227m-60.293-4.048h31.632m-31.632 0h-31.632m31.632 0 4.009-3.901m27.623 3.901 1.304-1.48.859-.975 1.274-1.446m-3.437 3.901h31.632m-51.657-11.296h29.973m-29.973 0 2.714-2.64.889-.866m-3.603 3.506h-29.974m29.974 0-3.258 3.17-.473.462m33.704-3.632 2.327-2.64.382-.435.38-.431m-3.089 3.506-1.585 1.8-1.613 1.832m3.198-3.632h29.975M393.286 13.9h29.459m-29.459 0 3.482-3.388m-3.482 3.388h-29.459m58.918 0h29.459m-29.459 0 2.984-3.388m-68.626 353.136h80.799m-80.799 0 10.903-24.76m-10.903 24.76h-80.799m80.799 0-11.982 27.208m92.781-27.208 7.269-24.76m-7.269 24.76-7.988 27.208m7.988-27.208h80.799m-150.695-24.76h77.165m-77.165 0h-77.164m77.164 0 9.965-22.629m67.2 22.629 6.643-22.629m-6.643 22.629h77.165m-126.804-62.504h67.989m-67.989 0 7.775-17.658m-7.775 17.658h-67.99m67.99 0-8.418 19.115m76.407-19.115 5.184-17.658m-5.184 17.658-5.612 19.115m5.612-19.115h67.99m-128.204-17.658h65.398m-65.398 0H337.91m65.397 0 7.205-16.36m58.193 16.36 4.803-16.36m-4.803 16.36h65.398m-110.66-45.724h58.685m-58.685 0 5.824-13.224m-5.824 13.224h-58.686m58.686 0-6.236 14.162m64.921-14.162 3.883-13.224m-3.883 13.224-4.157 14.162m4.157-14.162h58.687m-111.548-13.224h56.744m-56.744 0h-56.745m56.745 0 5.451-12.378m51.293 12.378 3.634-12.378m-3.634 12.378h56.745m-98.121-34.899h51.621m-51.621 0 4.524-10.273m-4.524 10.273h-51.622m51.622 0-4.805 10.912m56.426-10.912 3.017-10.273m-3.017 10.273-3.203 10.912m3.203-10.912h51.622m-98.719-10.273h50.114m-50.114 0h-50.113m50.113 0 4.268-9.69m45.846 9.69 2.845-9.69m-2.845 9.69h50.114m-88.114-27.509h46.076m-46.076 0 3.616-8.21m-3.616 8.21h-46.075m46.075 0-3.815 8.664m49.891-8.664 2.41-8.21m-2.41 8.21-2.543 8.664m2.543-8.664h46.076m-88.536-8.21h44.87m-44.87 0h-44.87m44.87 0 3.431-7.792m41.439 7.792 2.288-7.792m-2.288 7.792h44.871m-79.947-22.242h41.606m-41.606 0 2.956-6.71m-2.956 6.71h-41.605m41.605 0-3.102 7.046m44.708-7.046 1.971-6.71m-1.971 6.71-2.069 7.046m2.069-7.046h41.606m-80.256-6.71h40.621m-40.621 0h-40.62m40.62 0 1.073-2.436 1.746-3.966m37.802 6.401 1.879-6.4m-1.879 6.4h40.62M485.722 71.58h37.926m-37.926 0 2.461-5.588m-2.461 5.588h-37.927m37.927 0-1.919 4.357-.654 1.485m40.499-5.842.624-2.124 1.016-3.464m-1.64 5.588-1.715 5.842m1.715-5.842h37.926m-73.391-5.588.3-.682 2.057-4.67m-2.357 5.352h37.105m-37.105 0h-37.106m74.211 0 .598-2.034.196-.671.197-.667.581-1.98m-1.572 5.352h37.107m-67.429-15.404h34.844m-34.844 0 1.051-2.387.26-.589.258-.586.257-.583.255-.58m-2.081 4.725h-34.844m34.844 0-2.167 4.922m37.011-4.922 1.046-3.562.172-.583.17-.58m-1.388 4.725-1.444 4.922m1.444-4.922h34.846m-67.609-4.726h34.151m-34.151 0h-34.151m34.151 0 1.259-2.86.248-.563.493-1.118m32.151 4.541.839-2.86.166-.563.164-.56.164-.558m-1.333 4.541h34.151M502.822 32.75h32.226m-32.226 0 1.782-4.048m-1.782 4.048h-32.227m32.227 0-.457 1.036-.693 1.573-.702 1.594m34.078-4.203-.152.517-.926 3.152-.156.534m1.234-4.203 1.188-4.048m-1.188 4.048h32.226m-62.67-4.048h31.632m-31.632 0h-31.632m31.632 0 1.718-3.901m29.914 3.901.435-1.48.143-.489.143-.486.425-1.446m-1.146 3.901h31.632m-58.289-11.296h29.973m-29.973 0 1.163-2.64.38-.866m-1.543 3.506h-29.974m29.974 0-.594 1.347-.199.453-.201.455-.606 1.377m31.573-3.632.131-.445.259-.884.258-.877.381-1.3m-1.029 3.506-.528 1.8-.133.455-.27.916-.135.46m1.066-3.63h29.974M511.122 13.9h29.459m-29.459 0 1.309-2.971.184-.417m-1.493 3.388h-29.459m58.918 0 .127-.43.126-.428.125-.426.124-.425.371-1.262.123-.417m-.996 3.388h29.46m110.258 349.748h80.799m-80.799 0-3.635-24.76m3.635 24.76H599.5m80.799 0 3.994 27.208m76.805-27.208-7.269-24.76m7.269 24.76 7.988 27.208m-7.988-27.208h80.799m-165.233-24.76h77.165m-77.165 0H599.5m77.164 0-3.321-22.629m80.486 22.629-6.643-22.629m6.643 22.629h77.165m-163.505-62.504h67.99m-67.99 0-2.591-17.658m2.591 17.658H599.5m67.989 0 2.807 19.115m65.183-19.115-5.184-17.658m5.184 17.658 5.612 19.115m-5.612-19.115h67.989m-138.57-17.658h65.397m-65.397 0H599.5m65.398 0-2.402-16.36m67.799 16.36-4.803-16.36m4.803 16.36h65.398m-137.507-45.724h58.686m-58.686 0-1.942-13.224m1.942 13.224H599.5m58.686 0 2.079 14.162m56.607-14.162-3.883-13.224m3.883 13.224 4.157 14.162m-4.157-14.162h58.685m-119.313-13.224h56.745m-56.745 0H599.5m56.744 0-1.816-12.378m58.561 12.378-3.634-12.378m3.634 12.378h56.744m-118.611-34.899h51.622m-51.622 0-1.509-10.273m1.509 10.273H599.5m51.622 0 1.601 10.912m50.021-10.912-3.017-10.273m3.017 10.273 3.203 10.912m-3.203-10.912h51.621m-104.752-10.273h50.114m-50.114 0H599.5m50.113 0-1.422-9.69m51.536 9.69-2.845-9.69m2.845 9.69h50.114m-104.266-27.509h46.076m-46.076 0-1.205-8.21m1.205 8.21H599.5m46.075 0 1.273 8.664m44.803-8.664-2.41-8.21m2.41 8.21 2.543 8.664m-2.543-8.664h46.076m-93.357-8.21h44.871m-44.871 0H599.5m44.87 0-1.144-7.792m46.015 7.792-2.288-7.792m2.288 7.792h44.87m-93.006-22.242h41.606m-41.606 0-.985-6.71m.985 6.71H599.5m41.605 0 1.035 7.046m40.571-7.046-1.971-6.71m1.971 6.71 2.069 7.046m-2.069-7.046h41.606m-84.197-6.71h40.62m-40.62 0H599.5m40.62 0-.939-6.402m41.559 6.401-1.879-6.4m1.879 6.4h40.621M637.426 71.58h37.926m-37.926 0-.82-5.588m.82 5.588H599.5m37.926 0 .858 5.842m37.068-5.842-1.44-4.903-.2-.685m1.64 5.588 1.715 5.842m-1.715-5.842h37.926m-76.672-5.588-.1-.682-.686-4.67m.786 5.352h37.106m-37.106 0H599.5m74.212 0-.598-2.034-.196-.671-.197-.667-.581-1.98m1.572 5.352h37.105m-76.472-15.404h34.845m-34.845 0-.694-4.726m.694 4.726H599.5m34.845 0 .267 1.822.09.613.091.617.182 1.243.092.627m34.123-4.922-1.046-3.562-.342-1.164m1.388 4.726 1.444 4.922m-1.444-4.922h34.844m-70.383-4.726h34.151m-34.151 0H599.5m34.151 0-.667-4.541m34.818 4.541-.839-2.86-.166-.563-.164-.56-.164-.558m1.333 4.541h34.151M631.726 32.75h32.226m-32.226 0-.594-4.048m.594 4.048H599.5m32.226 0 .617 4.203m31.609-4.203.152.517.926 3.152.156.534m-1.234-4.203-1.188-4.048m1.188 4.048h32.227m-65.047-4.048h31.632m-31.632 0H599.5m31.632 0-.573-3.901m32.205 3.901-.435-1.48-.143-.489-.143-.486-.425-1.446m1.146 3.901h31.632m-64.922-11.296h29.974m-29.974 0-.515-3.506m.515 3.506H599.5m29.974 0 .533 3.632m29.441-3.632-.131-.445-.26-.884-.128-.44-.257-.872-.127-.434-.127-.431m1.03 3.506.528 1.8.133.455.27.916.135.46m-1.066-3.63h29.974M628.959 13.9l-.063-.43-.063-.428-.062-.426-.309-2.104m.497 3.388h29.459m-29.459 0H599.5m58.918 0h29.46m-29.46 0-.252-.858-.125-.426-.124-.425-.371-1.262-.123-.417M1003.5 363.648h80.79m-80.79 0-18.177-24.76m18.177 24.76h-80.803m80.803 0 19.97 27.208m60.82-27.208-21.8-24.76m21.8 24.76 23.97 27.208m-23.97-27.208h80.8m-179.767-24.76h77.167m-77.167 0h-77.165m77.165 0-16.608-22.629m93.775 22.629-19.93-22.629m19.93 22.629h77.16m-200.202-62.504h67.992m-67.992 0-12.96-17.658m12.96 17.658h-67.99m67.99 0 14.029 19.115m53.963-19.115-15.555-17.658m15.555 17.658 16.83 19.115m-16.83-19.115h67.99m-148.942-17.658h65.397m-65.397 0H861.09m65.398 0-12.009-16.36m77.406 16.36-14.41-16.36m14.41 16.36h65.395m-164.351-45.724h58.685m-58.685 0-9.707-13.224m9.707 13.224h-58.686m58.686 0 10.394 14.162m48.291-14.162-11.647-13.224m11.647 13.224 12.473 14.162m-12.473-14.162h58.686m-127.078-13.224h56.745m-56.745 0h-56.744m56.744 0-9.085-12.378m65.83 12.378L929.065 187.4m10.902 12.378h56.744m-139.103-34.899h51.622m-51.622 0-7.54-10.273m7.54 10.273h-51.621m51.621 0 8.009 10.912m43.613-10.912-9.048-10.273m9.048 10.273 9.61 10.912m-9.61-10.912h51.622m-110.784-10.273h50.114m-50.114 0h-50.114m50.114 0-7.112-9.69m57.226 9.69-8.535-9.69m8.535 9.69h50.113m-120.417-27.509h46.075m-46.075 0-6.026-8.21m6.026 8.21h-46.076m46.076 0 6.358 8.664m39.717-8.664-7.231-8.21m7.231 8.21 7.631 8.664m-7.631-8.664h46.076m-98.177-8.21h44.87m-44.87 0h-44.871m44.871 0-5.719-7.792m50.589 7.792-6.862-7.792m6.862 7.792h44.871M807.528 96.645h41.605m-41.605 0-4.926-6.71m4.926 6.71h-41.606m41.606 0 5.171 7.046m36.434-7.046-5.911-6.71m5.911 6.71 6.206 7.046m-6.206-7.046h41.606m-88.137-6.71h40.62m-40.62 0h-40.62m40.62 0-4.698-6.402m45.318 6.401-5.638-6.4m5.638 6.4h40.62M789.131 71.58l.525.716.529.72 3.233 4.406m-4.287-5.842h37.926m-37.926 0-4.102-5.588m4.102 5.588h-37.926m75.852 0-4.922-5.588m4.922 5.588 5.144 5.842m-5.144-5.842h37.926m-79.954-5.588h37.106m-37.106 0h-37.106m37.106 0-3.928-5.352m41.034 5.352-4.714-5.352m4.714 5.352h37.105m-85.517-15.404h34.845m-34.845 0-3.468-4.726m3.468 4.726h-34.844m34.844 0 3.612 4.922m31.233-4.922-2.621-2.976-1.541-1.75m4.162 4.726 4.335 4.922m-4.335-4.922h34.845m-73.158-4.726h34.151m-34.151 0h-34.151m34.151 0-2.923-3.983-.41-.558m37.484 4.541-4-4.541m4 4.541h34.151M760.631 32.75h32.227m-32.227 0-.753-1.026-2.218-3.022m2.971 4.048h-32.226m32.226 0 .761 1.036 1.542 2.102.782 1.065m29.142-4.203-3.566-4.048m3.566 4.048 1.371 1.558.926 1.05 1.404 1.595m-3.701-4.203h32.226m-67.424-4.048h31.632m-31.632 0h-31.632m31.632 0-2.157-2.94-.707-.961m34.496 3.901-1.303-1.48-.86-.975-1.274-1.446m3.437 3.901h31.632M749.37 17.406h29.974m-29.974 0-1.62-2.205-.954-1.301m2.574 3.506h-29.974m29.974 0 2.665 3.632m27.309-3.632-2.327-2.64-.382-.435-.38-.431m3.089 3.506 1.585 1.8 1.613 1.832m-3.198-3.632h29.973M746.796 13.9h29.459m-29.459 0-1.254-1.709-.619-.843-.308-.42-.306-.416m2.487 3.388h-29.459m58.918 0h29.459m-29.459 0-2.984-3.388m414.809 248.214h-65.4m65.4 0-21.62-16.36m21.62 16.36h19.59m-19.59 0 19.59 14.832m-80-60.556h58.69m-58.69 0-17.47-13.224m17.47 13.224h-58.68m58.68 0 18.71 14.162m39.98-14.162-19.42-13.224m19.42 13.224 20.78 14.162m-20.78-14.162h21.31m-97.47-13.224h56.74m-56.74 0h-56.74m56.74 0-16.35-12.378m73.09 12.378-18.17-12.378m18.17 12.378h40.73m-143.57-34.899h51.62m-51.62 0-13.58-10.273m13.58 10.273h-51.63m51.63 0 14.41 10.912m37.21-10.912-15.08-10.273m15.08 10.273 16.01 10.912m-16.01-10.912h51.62m-116.82-10.273h50.12m-50.12 0h-50.11m50.11 0-12.8-9.69m62.92 9.69-14.23-9.69m14.23 9.69h50.11m-136.57-27.509h46.08m-46.08 0-10.85-8.21m10.85 8.21h-46.075m46.075 0 11.45 8.664m34.63-8.664-12.06-8.21m12.06 8.21 12.71 8.664m-12.71-8.664h46.07m-103-8.21h44.87m-44.87 0h-44.867m44.867 0-10.29-7.792m55.16 7.792-11.43-7.792m11.43 7.792h44.87M973.95 96.645h41.61m-41.61 0-8.867-6.71m8.867 6.71h-41.605m41.605 0 9.307 7.046m32.303-7.046-9.86-6.71m9.86 6.71 10.34 7.046m-10.34-7.046h41.6m-92.077-6.71h40.617m-40.617 0h-40.62m40.62 0-8.456-6.402m49.073 6.401-9.393-6.4m9.393 6.4h40.62M940.836 71.58h37.925m-37.925 0-7.384-5.588m7.384 5.588h-37.927m37.927 0 7.716 5.842m30.209-5.842-8.204-5.588m8.204 5.588 8.575 5.842m-8.575-5.842h37.929m-83.238-5.588h37.105m-37.105 0h-37.105m37.105 0-7.071-5.352m44.176 5.352-7.856-5.352m7.856 5.352h37.103m-94.558-15.404h34.844m-34.844 0-6.244-4.726m6.244 4.726h-34.845m34.845 0 6.502 4.922m28.342-4.922-6.936-4.726m6.936 4.726 7.225 4.922m-7.225-4.922h34.845m-75.933-4.726h34.152m-34.152 0h-34.15m34.15 0-5.999-4.541m40.151 4.541-6.667-4.541m6.667 4.541h34.151M889.536 32.75h32.226m-32.226 0-5.348-4.048m5.348 4.048H857.31m32.226 0 1.369 1.036.689.522 3.496 2.645m26.672-4.203-5.942-4.048m5.942 4.048 6.171 4.203m-6.171-4.203h32.227m-69.801-4.048h31.632m-31.632 0h-31.632m31.632 0-5.154-3.901m36.786 3.901-5.727-3.901m5.727 3.901h31.632m-78.187-11.296h29.974m-29.974 0-4.633-3.506m4.633 3.506h-29.974m29.974 0 4.798 3.632m25.176-3.632-3.878-2.64-.636-.435-.634-.431m5.148 3.506 5.33 3.632m-5.33-3.632h29.974M864.632 13.9h29.459m-29.459 0-3.924-2.971-.552-.417m4.476 3.388h-29.459m58.918 0h29.46m-29.46 0-4.973-3.388m309.362 116.585-15.67-8.21m15.67 8.21h-46.07m46.07 0 9.19 4.816m-9.19-4.816h9.19m-24.86-8.21h-44.87m44.87 0-14.86-7.792m14.86 7.792h24.86m-67.3-22.242h41.61m-41.61 0-12.81-6.71m12.81 6.71h-41.6m41.6 0 13.45 7.046m28.16-7.046-13.8-6.71m13.8 6.71 14.48 7.046m-14.48-7.046h25.69m-80.11-6.71h40.62m-40.62 0h-40.62m40.62 0-12.21-6.402m52.83 6.401-13.15-6.4m13.15 6.4h39.49M1092.54 71.58h37.93m-37.93 0-10.66-5.588m10.66 5.588h-37.93m37.93 0 11.15 5.842m26.78-5.842-11.49-5.588m11.49 5.588 12 5.842m-12-5.842h37.92m-86.51-5.588h37.1m-37.1 0h-37.11m37.11 0-10.22-5.352m47.32 5.352-11-5.352m11 5.352h37.11m-103.61-15.404h34.84m-34.84 0-9.02-4.726m9.02 4.726h-34.84m34.84 0 9.39 4.922m25.45-4.922-9.71-4.726m9.71 4.726 10.12 4.922m-10.12-4.922h34.85m-78.71-4.726h34.15m-34.15 0h-34.15m34.15 0-8.66-4.541m42.81 4.541-9.33-4.541m9.33 4.541h34.15m-93.32-13.112h32.23m-32.23 0-7.72-4.048m7.72 4.048h-32.225m32.225 0 8.02 4.203m24.21-4.203-8.32-4.048m8.32 4.048 8.64 4.203m-8.64-4.203h32.22m-72.17-4.048h31.63m-31.63 0h-31.636m31.636 0-7.45-3.901m39.08 3.901-8.02-3.901m8.02 3.901h31.63m-84.819-11.296h29.969m-29.969 0-6.692-3.506m6.692 3.506h-29.974m29.974 0 6.929 3.632m23.04-3.632-7.2-3.506m7.2 3.506 7.47 3.632m-7.47-3.632h29.98M982.469 13.9h29.461m-29.461 0-6.466-3.388m6.466 3.388H953.01m58.92 0h29.46m-29.46 0-6.97-3.388m186.9 40.076-11.79-4.726m11.79 4.726h-34.85m34.85 0 12.28 4.922m-12.28-4.922h15.81m-27.6-4.726h-34.15m34.15 0-11.34-4.541m11.34 4.541h27.6m-60.32-13.112h32.22m-32.22 0-10.11-4.048m10.11 4.048h-32.23m32.23 0 10.49 4.203m21.73-4.203-10.69-4.048m10.69 4.048 11.11 4.203m-11.11-4.203h28.1m-70.43-4.048h31.64m-31.64 0h-31.63m31.63 0-9.73-3.901m41.37 3.901-10.31-3.901m10.31 3.901h31.63m-91.45-11.296h29.97m-29.97 0-8.75-3.506m8.75 3.506h-29.98m29.98 0 9.06 3.632m20.91-3.632-9.27-3.506m9.27 3.506 9.59 3.632m-9.59-3.632H1169m-68.69-3.506h29.45m-29.45 0-8.46-3.388m8.46 3.388h-29.46m58.91 0h29.46m-29.46 0-8.95-3.388m27.81 10.526 9.95 3.763m-9.95-3.763h30.51m-30.51 0h-30.5m50.88-3.632-9.78-3.506m9.78 3.506 10.13 3.632M1169 17.406h29.98m-39.76-3.506h29.46m-29.46 0-9.45-3.388m-28.96 0h-28.96m28.96 0h28.96m-28.96 0-8.65-3.276m66.97 13.802 10.5 3.763m-10.5-3.763h28.54m-8.69-3.632-10.3-3.506m10.3 3.506 8.69 2.962m-8.69-2.962h8.69m-18.99-3.506-9.94-3.388m9.94 3.388h18.99m-57.9-3.388h28.97m-28.97 0-9.13-3.276m38.1 3.276-9.62-3.276m9.62 3.276h28.93m-49.1 14.289h31.06m-31.06 0h-31.06m73 3.901-10.88-3.901m10.88 3.901 7.16 2.568m-7.16-2.568h7.16m-18.04-3.901h18.04m-80.16 0h-31.06m31.06 0-9.39-3.763m0 0h-30.51m103.07 15.915 11.54 4.368m-11.54-4.368h-32.84m32.84 0h16.99m.1-4.203h-.1m-5.45 8.571h-33.49m33.49 0 5.45 2.064m-5.45-2.064h5.45m-38.94 0h-33.48m33.48 0-10.89-4.368m0 0h-32.85m-98.39-15.915 7.73 3.763m-7.73-3.763h30.5m-30.5 0h-30.51m53.02-3.632-7.72-3.506m7.72 3.506 7.99 3.632m-7.99-3.632h29.97m-37.69-3.506h29.46m-29.46 0-7.46-3.388m-28.97 0h28.97m-28.97 0-6.727-3.276m6.727 3.276h-28.957m81.097 10.526 8.29 3.763m-8.29-3.763h30.51m-8.53-3.632-8.23-3.506m8.23 3.506 8.53 3.632m-16.76-7.138-7.96-3.388m-28.96 0h28.96m-28.96 0-7.22-3.276m60.9 13.802 8.84 3.763m-4.6-14.29h-28.96m28.96 0-8.17-3.275m-20.79 3.276-7.7-3.276M1034.33 24.8h31.06m-31.06 0h-31.06m70.71 3.901-8.59-3.901m8.59 3.901 8.91 4.048m-8.91-4.048h31.63m-40.22-3.901h31.06m-93.18 0h-31.058m31.058 0-7.18-3.763m100.36 3.763 9.16 3.901m-109.52-7.664h-30.507M1082.89 32.75l9.26 4.203m-9.26-4.203h32.23m-9.51-4.048 9.51 4.048m0 0 9.87 4.203m-65.68 0 8.97 4.368m-8.97-4.368h32.84m-32.84 0h-32.85m65.69 0 9.61 4.368m-9.61-4.368h32.84m0 0 10.26 4.368m-66.97 0h33.48m-33.48 0h-33.48m76.96 4.541-10-4.541m10 4.541 10.41 4.726m-10.41-4.726h34.16m-44.16-4.541h33.49m-100.45 0h-33.49m33.49 0-8.34-4.368m108.79 4.368 10.67 4.541m-119.46-8.909h-32.841m128.551 13.635 10.84 4.922m-10.84-4.922h34.84m-11.09-4.726 11.09 4.726m0 0 11.56 4.922m-71.13 0 10.54 5.13m-10.54-5.13h35.57m-35.57 0h-35.57m71.14 0 11.29 5.13m-11.29-5.13h35.56m0 0 12.05 5.13m-12.05-5.13h35.57m0 0h3.53m-3.53 0 3.53 1.415m-99.69 3.715h36.32m-36.32 0h-36.32m84.43 5.352-11.79-5.352m11.79 5.352 12.3 5.588m-12.3-5.588h37.1m-48.89-5.352h36.32m-108.96 0h-36.32m36.32 0-9.79-5.13m118.75 5.13 12.57 5.352m-12.57-5.352h27.05m-145.8-5.13h-35.56m142.08 16.07 12.86 5.842m-12.86-5.842h37.93m-13.13-5.588 13.13 5.588m-13.13-5.588h14.48m.19-5.352h-.19m-1.35 10.94 1.35.577m-1.35-.577h1.35m-65.2 5.842 12.56 6.111m-12.56-6.111h38.78m-38.78 0h-38.78m77.56 0 13.46 6.111m-13.46-6.111h26.42m.33-5.126-.33-.14m-52.64 11.377h39.68m-39.68 0h-39.68m79.36 0h12.96m-12.96 0 12.96 5.887m-92.32-5.887h-39.68m39.68 0-11.66-6.111m0 0h-38.79m131.56 26.269h-42.64m42.64 0 11.21 5.458m-11.21-5.458h11.21m.31-7.046h-.31m-53.85 7.046h-42.64m42.64 0 14.13 7.404m39.85-1.886-.13-.06M904.569 21.038l5.524 3.763m-5.524-3.763h30.507m-30.507 0h-30.506m55.15-3.632-5.662-3.506m5.662 3.506 5.863 3.632m-5.863-3.632h29.974M923.551 13.9h29.459m-29.459 0-5.471-3.388m-28.962 0h28.962m-28.962 0-1.822-1.242-2.987-2.034m4.809 3.276h-28.962m74.92 10.526 6.076 3.763m-6.076-3.763h30.507m-6.396-3.632L953.01 13.9m6.177 3.506 6.396 3.632M953.01 13.9l-5.969-3.388m-28.961 0h28.961m-28.961 0-5.289-3.276m52.792 13.802 6.629 3.763m3.791-14.29-6.251-3.275m6.251 3.276h-28.962m0 0-.731-.416-1.455-.826-3.584-2.034M910.093 24.8h31.059m-31.059 0h-31.059m68.418 3.901-6.3-3.901m6.3 3.901 6.537 4.048m-6.537-4.048h31.632M941.152 24.8h31.06m-93.178 0h-31.059m31.059 0-4.971-3.763m98.149 3.763 6.872 3.901m-105.021-7.664h-30.508M953.989 32.75l6.787 4.203m-6.787-4.203h32.226m-7.131-4.048.877.498 6.254 3.55m0 0 7.404 4.203m-65.686 0 .787.538 5.623 3.83m-6.41-4.368h32.843m-32.843 0H895.09m65.686 0 7.052 4.368m-7.052-4.368h32.843m0 0 7.691 4.368m-66.967 0h33.485m-33.485 0h-33.484m74.302 4.541-7.333-4.541m7.333 4.541 7.63 4.726m-7.63-4.726h34.149m-41.482-4.541h33.482m-100.451 0h-33.484m33.484 0-5.769-4.368m106.22 4.368 8 4.541m-114.22-8.909h-32.844m120.545 13.635 7.947 4.922m-7.947-4.922h34.849m-8.33-4.726 8.33 4.726m0 0 8.67 4.922m-71.139 0 7.53 5.13m-7.53-5.13h35.567m-35.567 0h-35.567m71.134 0 8.284 5.13m-8.284-5.13h35.572m0 0 9.03 5.13m-72.639 0h36.321m-36.321 0h-36.32m81.279 5.352-8.638-5.352m8.638 5.352 9.03 5.588m-9.03-5.588h37.11m-45.748-5.352h36.318m-108.959 0h-36.32m36.32 0-6.777-5.13m115.736 5.13 9.43 5.352M919.604 55.509h-35.567M1016.69 71.58l9.43 5.842m-9.43-5.842h37.92m-9.84-5.588 9.84 5.588m0 0 10.29 5.842m-77.564 0 8.971 6.111m-8.971-6.111h38.784m-38.784 0h-38.784m77.568 0 9.87 6.111m-9.87-6.111h38.78m0 0 10.77 6.111m-79.363 0h39.683m-39.683 0h-39.68m89.693 6.401-10.33-6.4m10.33 6.4 10.84 6.712m-10.84-6.712h40.62m-50.95-6.4h39.68m-119.043 0h-39.681m39.681 0-8.075-6.112m127.118 6.111 11.27 6.401M948.552 77.422h-38.783m147.391 19.224 11.38 7.045m-11.38-7.046h41.61m-11.83-6.71 11.83 6.71m0 0 12.41 7.046m-85.28 0 10.87 7.404m-10.87-7.404h42.64m-42.64 0h-42.643m85.283 0 11.95 7.404m-11.95-7.404h42.64m0 0 13.04 7.404m-87.45 0h43.72m-43.72 0h-43.73m100.03 7.792-12.58-7.792m12.58 7.792 13.26 8.21m-13.26-8.21h44.87m-57.45-7.792h43.73m-131.18 0h-43.727m43.727 0-9.783-7.404m140.963 7.404 13.72 7.792m-13.72-7.792h43.73m-184.693-7.404h-42.639m165.712 23.406 13.99 8.664m-13.99-8.664h46.08m-14.47-8.21 14.47 8.21m15.54-16.002h39.72m-55.26 16.002 15.26 8.664m-94.7 0 13.44 9.155m-13.44-9.155h47.35m-47.35 0h-47.34m94.69 0 14.78 9.155m-14.78-9.155h47.35m0 0 16.12 9.155m-16.12-9.155h40m-121.26 9.155h48.69m-48.69 0h-48.69m113.03 9.69-15.65-9.69m15.65 9.69 16.59 10.273m-16.59-10.273h50.11m-65.76-9.69h48.69m-146.07 0h-48.691m48.691 0-12.09-9.155m158.16 9.155 17.07 9.69m-17.07-9.69h23.88m-182.04-9.155h-47.352m189.062 29.118 17.62 10.912m-17.62-10.912h40.33m-6.81-10.273h6.81m-6.81 0 6.81 3.866m-75.94 17.319 17.04 11.609m-17.04-11.609h53.23m-53.23 0h-53.22m106.45 0 18.74 11.609m-18.74-11.609h22.71m-58.9 11.609h54.93m-54.93 0h-54.92m109.85 0 3.97 2.459m-3.97-2.459h3.97m-113.82 0h-54.93m54.93 0-15.34-11.609m0 0h-53.22m181.85 51.373h-60.76m60.76 0h.53m-.53 0 .53.359m-61.29-.359h-60.76m60.76 0 20.08 15.202M782.542 21.038l1.229 1.395.413.47 1.671 1.898m-3.313-3.763h30.506m-30.506 0h-30.507m57.282-3.632-2.714-2.64-.889-.866m3.603 3.506 3.258 3.17.473.462m-3.731-3.632h29.974M805.714 13.9h29.459m-29.459 0-3.482-3.388m-28.961 0h28.961m-28.961 0-1.094-1.242-1.791-2.034m2.885 3.276h-28.962m68.739 10.526.954.928 2.913 2.835m-3.867-3.763h30.507m-4.264-3.632-4.118-3.506m4.118 3.506 4.264 3.632m-8.382-7.138-2.997-2.552-.982-.836m-28.962 0h28.962m-28.962 0-3.365-3.276m44.688 13.802 4.42 3.763m12.181-14.29-.549-.415-3.779-2.86m4.328 3.276h-28.962m0 0-1.458-1.242-2.389-2.034M785.855 24.8h31.06m-31.06 0h-31.059m66.128 3.901-4.009-3.901m4.009 3.901 4.16 4.048m-4.16-4.048h31.632M816.915 24.8h31.06m-93.179 0h-31.059m31.059 0-2.761-3.763m95.94 3.763 4.581 3.901m-100.521-7.664h-30.507M825.084 32.75l2.68 2.609.544.529 1.095 1.065m-4.319-4.203h32.226m-4.754-4.048 4.754 4.048m0 0 4.936 4.203m-65.687 0 3.847 4.368m-3.847-4.368h32.844m-32.844 0h-32.843m65.687 0 4.487 4.368m-4.487-4.368h32.843m0 0 5.129 4.368m-66.969 0h33.484m-33.484 0h-33.484m71.635 4.541-2.938-2.86-.579-.563-1.15-1.118m4.667 4.541 4.856 4.726m-4.856-4.726h34.151m-38.818-4.541h33.485m-100.453 0h-33.485m33.485 0-3.206-4.368m103.659 4.368 5.333 4.541m-108.992-8.909h-32.843m112.54 13.635 5.057 4.922m-5.057-4.922h34.844m-5.549-4.726 5.549 4.726m0 0 5.78 4.922m-71.134 0 2.235 2.537.566.644 1.717 1.949m-4.518-5.13h35.567m-35.567 0h-35.568m71.135 0 5.271 5.13m-5.271-5.13h35.567m0 0 6.024 5.13m-72.64 0h36.32m-36.32 0h-36.32m78.139 5.352-5.499-5.352m5.499 5.352 5.743 5.588m-5.743-5.588h37.107m-42.606-5.352h36.32m-108.96 0H744.78m36.321 0-.957-1.303-2.809-3.828m112.726 5.13 6.286 5.353M777.335 55.509h-35.566M864.983 71.58l6.002 5.842m-6.002-5.842h37.926m-6.562-5.588 6.562 5.588m0 0 6.86 5.842m-77.568 0 5.383 6.111m-5.383-6.111h38.784m-38.784 0h-38.783m77.567 0 6.28 6.111m-6.28-6.111h38.784m0 0 7.177 6.111m-79.362 0h39.681m-39.681 0h-39.68m85.938 6.401-6.577-6.4m6.577 6.4 6.897 6.712m-6.897-6.712h40.621m-47.198-6.4h39.681m-119.042 0h-39.681m39.681 0-4.486-6.112m123.528 6.111 7.517 6.401M793.418 77.422h-38.783m136.104 19.224 7.239 7.045m-7.239-7.046h41.606m-7.882-6.71 7.882 6.71m0 0 8.273 7.046m-85.279 0 6.521 7.404m-6.521-7.404h42.639m-42.639 0h-42.64m85.279 0 7.608 7.404m-7.608-7.404h42.64m0 0 8.695 7.404m-87.453 0h43.726m-43.726 0h-43.727m95.46 7.792-8.007-7.792m8.007 7.792 8.436 8.21m-8.436-8.21h44.87m-52.877-7.792h43.727m-131.18 0h-43.726m43.726 0-5.434-7.404m136.614 7.404 9.15 7.792m-145.764-15.196h-42.64m151.97 23.406 8.902 8.664m-8.902-8.664h46.076m-9.642-8.21 9.642 8.21m0 0 10.173 8.664m-94.694 0 8.063 9.155m-8.063-9.155h47.347m-47.347 0h-47.348m94.695 0 9.407 9.155m-9.407-9.155h47.347m0 0 10.751 9.155m-97.382 0h48.691m-48.691 0h-48.691m107.339 9.69-9.957-9.69m9.957 9.69 10.557 10.273m-10.557-10.273h50.115m-60.072-9.69h48.691m-146.073 0h-48.691m48.691 0-6.72-9.155m152.793 9.155 11.381 9.69m-164.174-18.845h-47.347m171.963 29.118 11.211 10.912m-11.211-10.912h51.618m-12.06-10.273 12.06 10.273m0 0 12.82 10.912m-106.45 0 10.225 11.609m-10.225-11.609h53.223m-53.223 0h-53.223m106.446 0 11.929 11.609m-11.929-11.609h53.227m0 0 13.63 11.609m-109.855 0h54.927m-54.927 0h-54.928m122.574 12.378L983.992 187.4m12.719 12.378 13.589 13.224m-13.589-13.224h56.749M983.992 187.4h54.928m-164.783 0H819.21m54.927 0-8.52-11.609M1038.92 187.4l14.54 12.378m-187.843-23.987h-53.224m197.907 37.211 14.55 14.162m-14.55-14.162h58.69m-15.53-13.224 15.53 13.224m0 0 16.63 14.162m-121.533 0 13.388 15.202m-13.388-15.202h60.763m-60.763 0h-60.764m121.527 0 15.62 15.202m-15.62-15.202h60.77m0 0 17.85 15.202m-125.995 0h62.995m-62.995 0h-62.996m142.801 16.36-16.81-16.36m16.81 16.36 18.15 17.658m-18.15-17.658h65.4m-82.21-16.36h63m-188.991 0h-62.995m62.995 0-11.156-15.202m200.147 15.202 19.21 16.36m-19.21-16.36h62.99m-263.137-15.202h-60.765m232.872 49.22 19.64 19.115m-19.64-19.115h67.99m-20.74-17.658 20.74 17.658m23.04-34.018h41.21m-64.25 34.018 22.44 19.115m-22.44-19.115h64.25m-183.4 19.115 18.29 20.76m-18.29-20.76h70.8m-70.8 0h-70.793m141.593 0 21.33 20.76m-21.33-20.76h70.79m0 0 24.38 20.76m-24.38-20.76h41.81m-165.11 20.76h73.84m-73.84 0h-73.845m170.935 22.629-23.25-22.629m23.25 22.629 25.44 24.76m-25.44-24.76h68.02m-91.27-22.629h73.84m-221.525 0h-73.843m73.843 0-15.238-20.76m236.763 20.76h17.43m-17.43 0 17.43 14.842m-254.193-35.602h-70.795m282.408 68.149 27.96 27.208m-27.96-27.208h42.58m-99.41 27.208 26.45 30.037m-26.45-30.037h84.79m-84.79 0h-84.79m169.58 0 14.62 14.23m-14.62-14.23h14.62m-72.96 30.037h-89.2m89.2 0h72.96m-162.16 0h-89.201m89.201 0-22.04-30.037m0 0h-84.798M660.514 21.038l.136.463.136.465.138.467.137.47.418 1.42.139.478m-1.104-3.763h30.507m-30.507 0h-30.507m59.415-3.632-1.164-2.64-.38-.866m1.544 3.506.993 2.255.606 1.377m-1.599-3.632h29.974M687.878 13.9h29.459m-29.459 0-1.124-2.552-.369-.836m-28.962 0-.121-.416-.483-1.645-.357-1.215m.961 3.276h28.962m-28.962 0h-28.961m62.559 10.526.203.463.206.465.205.467.207.47.836 1.898m-1.657-3.763h30.507m-2.132-3.632-1.551-2.64-.508-.866m2.059 3.506 2.132 3.632m-4.191-7.138-1.004-1.709-.741-1.262-.245-.417m-28.962 0-.182-.416-.364-.826-.361-.819-.179-.407-.356-.808m1.442 3.276h28.962m6.181 10.526 1.65 2.81.559.953m20.572-14.29-1.811-2.467-.593-.808m2.404 3.276h-28.962m0 0-1.686-2.873-.238-.403M661.618 24.8h31.06m-31.06 0h-31.059m63.837 3.901-1.718-3.901m1.718 3.901 1.783 4.048m-1.783-4.048h31.632m-33.35-3.901h31.059m-93.178 0H599.5m31.059 0-.552-3.763m93.73 3.763 2.291 3.901m-96.021-7.664H599.5m96.679 11.712.456 1.036.693 1.573.702 1.594m-1.851-4.203h32.226m-2.377-4.048.292.498 2.085 3.55m0 0 .303.517.306.52.306.521 1.553 2.645m-65.687 0 1.283 4.368m-1.283-4.368h32.844m-32.844 0h-32.843m65.687 0 1.923 4.368m-1.923-4.368h32.843m0 0 1.914 3.26.325.553.325.555m-66.968 0h33.484m-33.484 0h-33.485m68.969 4.541.255.58.258.584.257.586 1.311 2.976m-2.081-4.726-1.01-2.293-.249-.566-.248-.564-.493-1.118m2 4.541h34.151m-36.151-4.541h33.484m-100.453 0H599.5m33.484 0-.641-4.368m101.094 4.368 2.667 4.541m-103.761-8.909H599.5m104.534 13.635 1.892 4.295.275.627m-2.167-4.922h34.845m-2.775-4.726.683 1.164 2.092 3.562m0 0 1.07 1.822 1.82 3.1m-71.135 0 .746 2.537.188.644.572 1.949m-1.506-5.13h35.567m-35.567 0h-35.567m71.134 0 2.259 5.13m-2.259-5.13h35.568m0 0 3.011 5.13m-72.64 0h36.32m-36.32 0h-36.32m74.997 5.352-2.357-5.352m2.357 5.352 2.461 5.588m-2.461-5.588h37.106M708.46 60.64h36.32m-108.96 0H599.5m36.32 0-.191-1.303-.377-2.565-.185-1.262m109.713 5.13 3.143 5.352M635.067 55.509H599.5M713.278 71.58l1.919 4.357.654 1.485m-2.573-5.842h37.927m-3.282-5.588 3.282 5.588m0 0 1.695 2.888 1.735 2.954m-77.568 0 1.794 6.111m-1.794-6.111h38.784m-38.784 0h-38.783m77.567 0 2.691 6.111m-2.691-6.111h38.784m0 0 3.588 6.111m-79.362 0h39.681m-39.681 0h-39.68m82.18 6.401-.717-1.628-2.102-4.773m2.819 6.401 2.956 6.712m-2.956-6.712h40.621m-43.44-6.4h39.681m-119.042 0H599.5m39.681 0-.897-6.112m119.939 6.111 3.759 6.401M638.284 77.422H599.5m124.817 19.224 3.102 7.045m-3.102-7.046h41.605m-3.94-6.71 3.94 6.71m0 0 4.137 7.046m-85.279 0 2.173 7.404m-2.173-7.404h42.639m-42.639 0h-42.64m85.279 0 3.261 7.404m-3.261-7.404h42.64m0 0 4.348 7.404m-87.454 0h43.727m-43.727 0h-43.727m90.885 7.792-3.431-7.792m3.431 7.792 3.616 8.21m-3.616-8.21h44.87m-48.301-7.792h43.727m-131.181 0H599.5m43.726 0-.954-6.499-.132-.905m132.267 7.404 4.574 7.792M642.14 103.691H599.5m138.227 23.406 3.815 8.664m-3.815-8.664h46.075m-4.821-8.21 3.592 6.117 1.229 2.093m0 0 5.087 8.664m-94.695 0 2.688 9.155m-2.688-9.155h47.348m-47.348 0h-47.346m94.694 0 4.032 9.155m-4.032-9.155h47.347m0 0 5.376 9.155m-97.383 0h48.692m-48.692 0h-48.691m101.65 9.69-4.267-9.69m4.267 9.69 4.524 10.273m-4.524-10.273h50.113m-54.38-9.69h48.691m-146.074 0H599.5m48.691 0-1.343-9.155m147.417 9.155 5.689 9.69m-153.106-18.845H599.5m154.865 29.118 4.805 10.912m-4.805-10.912h51.622m-6.033-10.273 6.033 10.273m0 0 6.406 10.912m-106.446 0 3.408 11.609m-3.408-11.609h53.223m-53.223 0h-53.224m106.447 0 5.112 11.609m-5.112-11.609h53.223m0 0 6.817 11.609m-109.855 0h54.927m-54.927 0h-54.927m115.305 12.378-5.451-12.378m5.451 12.378 5.824 13.224m-5.824-13.224h56.745M764.282 187.4h54.928m-164.782 0H599.5m54.928 0-1.705-11.609M819.21 187.4l7.268 12.378m-173.755-23.987H599.5m176.057 37.211 6.236 14.162m-6.236-14.162h58.686m-7.765-13.224 7.765 13.224m0 0 8.315 14.162m-121.529 0 4.463 15.202m-4.463-15.202h60.764m-60.764 0h-60.764m121.528 0 6.695 15.202m-6.695-15.202h60.765m0 0 8.926 15.202m-125.992 0h62.996m-62.996 0h-62.996m133.197 16.36-7.205-16.36m7.205 16.36 7.775 17.658m-7.775-17.658h65.397m-72.602-16.36h62.996m-188.988 0H599.5m62.996 0-2.231-15.202m191.219 15.202 9.606 16.36m-200.825-31.562H599.5m203.968 49.22 8.418 19.115m-8.418-19.115h67.99m-10.368-17.658 10.368 17.658m0 0 11.224 19.115m-141.591 0 6.095 20.76m-6.095-20.76h70.795m-70.795 0h-70.795m141.59 0 9.143 20.76m-9.143-20.76h70.796m0 0 12.19 20.76m-147.686 0h73.843m-73.843 0h-73.843m157.651 22.629-9.965-22.629m9.965 22.629 10.903 24.76m-10.903-24.76h77.164m-87.129-22.629h73.843m-221.529 0H599.5m73.843 0-3.047-20.76m224.576 20.76 13.286 22.629m-237.862-43.389H599.5m242.397 68.149 11.982 27.208m-11.982-27.208h80.8m-14.539-24.76 14.539 24.76m0 0 15.975 27.208m-169.586 0 8.818 30.037m-8.818-30.037h84.793m-84.793 0h-84.793m169.586 0 13.228 30.037m-13.228-30.037h84.793m0 0 17.637 30.037m-89.202 0h-89.203m89.203 0h89.202m-178.405 0h-89.202m0 0H599.5m89.202 0-4.409-30.037m0 0H599.5M538.486 21.038l-.136.463-.136.465-.137.467-.138.47-.277.944-.14.476-.14.478m1.104-3.763h30.507m-30.507 0h-30.507m61.547-3.632.515-3.506m-.515 3.506-.533 3.632m.533-3.632H599.5M570.041 13.9l.063-.43.063-.428.062-.426.309-2.104m-.497 3.388H599.5m-57.923-3.388.121-.416.483-1.645.357-1.215m-.961 3.276h28.961m-28.961 0h-28.962m56.378 10.526-.068.463-.068.465-.069.467-.347 2.368m.552-3.763H599.5m0-3.632V13.9m0 3.506v3.632m0-7.138v-3.388m-28.962 0H599.5m-28.962 0 .182-1.242.061-.41.238-1.624M599.5 21.038V24.8m28.962-14.29-.182-1.24-.061-.411-.059-.409-.061-.407-.059-.405-.059-.403m.481 3.276H599.5m0 0V7.236M537.382 24.8h31.059m-31.059 0h-31.06m61.546 3.901-.073.498-.073.5-.448 3.05m.594-4.048.573-3.901m-.573 3.901H599.5M568.441 24.8H599.5m-93.178 0h-31.059m31.059 0 .42-.954.209-.473.207-.472.207-.47.205-.466.206-.465.203-.463M599.5 24.8v3.901m-91.521-7.664h-30.507m89.802 11.712-.617 4.203m.617-4.203H599.5m0-4.048v4.048m0 0v4.203m-65.686 0-1.283 4.368m1.283-4.368h32.843m-32.843 0H500.97m65.687 0-.641 4.368m.641-4.368H599.5m0 0v4.368m-66.969 0h33.485m-33.485 0h-33.484m66.302 4.541.667-4.541m-.667 4.541-.693 4.726m.693-4.726H599.5m-33.484-4.541H599.5m-100.453 0h-33.484m33.484 0 1.923-4.368m98.53 4.368v4.541m-98.53-8.909h-32.843m96.529 13.635-.268 1.822-.272 1.85-.183 1.25m.723-4.922H599.5m0-4.726v4.726m0 0v4.922m-71.134 0-.746 2.537-.188.644-.572 1.949m1.506-5.13h35.567m-35.567 0h-35.567m71.134 0-.185 1.262-.377 2.565-.191 1.303m.753-5.13H599.5m0 0v5.13m-72.64 0h36.32m-36.32 0h-36.32m71.855 5.352.099-.682.686-4.67m-.785 5.352-.821 5.588m.821-5.588H599.5m-36.32-5.352h36.32m-108.96 0h-36.32m36.32 0 2.259-5.13M599.5 60.64v5.352M492.799 55.509h-35.568M561.574 71.58l-.858 5.842m.858-5.842H599.5m0-5.588v5.588m0 0v5.842m-77.567 0-1.794 6.111m1.794-6.111h38.783m-38.783 0h-38.784m77.567 0-.897 6.111m.897-6.111H599.5m0 0v6.111m-79.361 0h39.68m-39.68 0h-39.681m78.422 6.401.939-6.4m-.939 6.4-.985 6.712m.985-6.712h40.62m-39.681-6.4H599.5m-119.042 0h-39.681m39.681 0 2.691-6.112M599.5 83.533v6.401M483.149 77.422h-38.784m113.53 19.224-1.035 7.045m1.035-7.046H599.5m0-6.71v6.71m0 0v7.046m-85.28 0-2.173 7.404m2.173-7.404h42.64m-42.64 0h-42.639m85.279 0-1.086 7.404m1.086-7.404h42.64m0 0v7.404m-87.453 0h43.727m-43.727 0H468.32m86.31 7.792 1.144-7.792m-1.144 7.792-1.205 8.21m1.205-8.21h44.87m-43.726-7.792H599.5m-131.18 0h-43.727m43.727 0 3.261-7.404m127.919 7.404v7.792m-127.919-15.196h-42.64m124.484 23.406-1.272 8.664m1.272-8.664H599.5m0-8.21v8.21m0 0v8.664m-94.694 0-2.688 9.155m2.688-9.155h47.347m-47.347 0h-47.348m94.695 0-1.344 9.155m1.344-9.155H599.5m0 0v9.155m-97.382 0h48.691m-48.691 0h-48.691m95.96 9.69 1.422-9.69m-1.422 9.69-1.509 10.273m1.509-10.273H599.5m-48.691-9.69H599.5m-146.073 0h-48.692m48.692 0 4.031-9.155m142.042 9.155v9.69m-142.042-18.845h-47.347m137.767 29.118-1.601 10.912m1.601-10.912H599.5m0-10.273v10.273m0 0v10.912m-106.447 0-3.408 11.609m3.408-11.609h53.224m-53.224 0H439.83m106.447 0-1.704 11.609m1.704-11.609H599.5m0 0V187.4m-109.855 0h54.928m-54.928 0h-54.927m108.038 12.378 1.817-12.378m-1.817 12.378-1.941 13.224m1.941-13.224H599.5M544.573 187.4H599.5m-164.782 0H379.79m54.928 0 5.112-11.609M599.5 187.4v12.378m-159.67-23.987h-53.223m154.208 37.211-2.08 14.162m2.08-14.162H599.5m0-13.224v13.224m0 0v14.162m-121.529 0-4.463 15.202m4.463-15.202h60.764m-60.764 0h-60.764m121.528 0-2.231 15.202m2.231-15.202H599.5m0 0v15.202m-125.992 0h62.996m-62.996 0h-62.996m123.591 16.36 2.401-16.36m-2.401 16.36-2.592 17.658m2.592-17.658H599.5m-62.996-16.36H599.5m-188.988 0h-62.996m62.996 0 6.695-15.202M599.5 242.366v16.36m-182.293-31.562h-60.765m175.069 49.22-2.807 19.115m2.807-19.115H599.5m0-17.658v17.658m0 0v19.115m-141.591 0-6.095 20.76m6.095-20.76h70.795m-70.795 0h-70.795m141.59 0-3.047 20.76m3.047-20.76H599.5m0 0v20.76m-147.686 0h73.843m-73.843 0h-73.843m144.365 22.629 3.321-22.629m-3.321 22.629-3.635 24.76m3.635-24.76H599.5m-73.843-22.629H599.5m-221.529 0h-73.843m73.843 0 9.143-20.76m212.386 20.76v22.629m-212.386-43.389h-70.796m202.383 68.149-3.994 27.208m3.994-27.208H599.5m0-24.76v24.76m0 0v27.208m-169.586 0-8.818 30.037m8.818-30.037h84.793m-84.793 0h-84.793m169.586 0-4.409 30.037m4.409-30.037H599.5m0 0v30.037m-89.202 0h-89.202m89.202 0H599.5m-178.404 0h-89.203m0 0h-89.202m89.202 0 13.228-30.037m0 0h-84.793m156.13-369.818-1.642 1.864-1.671 1.899m3.313-3.763h30.507m-30.507 0h-30.506m63.679-3.632 2.573-3.506m-2.573 3.506-2.666 3.632m2.666-3.632h29.974M452.204 13.9h29.459m-29.459 0 1.873-2.552.614-.836m-28.962 0h28.962m-28.962 0 1.094-1.242 1.791-2.034m-2.885 3.276h-28.961m50.197 10.526-2.761 3.763m2.761-3.763h30.507m2.133-3.632 2.058-3.506m-2.058 3.506-2.133 3.632m4.191-7.138 1.004-1.709.741-1.262.245-.417m-28.962 0h28.962m-28.962 0 1.811-2.468.593-.808m20.377 13.802-1.65 2.81-.559.953m37.352-14.29.182-.415.364-.826.54-1.226.357-.808m-1.443 3.276h-28.962m0 0 .244-.416.485-.826 1.194-2.034M413.145 24.8h31.059m-31.059 0h-31.06m59.255 3.901.364-.495.362-.494 1.431-1.95.707-.962m-2.864 3.901-2.218 3.022-.753 1.026m2.971-4.048h31.632M444.204 24.8h31.059m-93.178 0h-31.06m31.06 0 2.913-2.835.954-.928m89.311 3.763-2.291 3.901m-87.02-7.664h-30.508m82.925 11.712-.379.517-.382.52-1.153 1.572-.389.529-.782 1.065m3.085-4.203h32.226m2.377-4.048-.292.498-2.085 3.55m0 0-.303.517-.305.52-.306.521-1.554 2.645m-65.686 0-3.847 4.368m3.847-4.368h32.843m-32.843 0h-32.843m65.686 0-3.206 4.368m3.206-4.368h32.843m0 0-2.564 4.368m-66.969 0h33.484m-33.484 0H365.11m63.635 4.541 3.333-4.541m-3.333 4.541-3.468 4.726m3.468-4.726h34.151m-30.818-4.541h33.485m-100.453 0h-33.485m33.485 0 4.488-4.368m95.965 4.368-2.667 4.541m-93.298-8.909h-32.844m88.523 13.635-3.612 4.922m3.612-4.922h34.845m2.774-4.726-.683 1.164-2.091 3.562m0 0-1.071 1.822-1.086 1.85-.734 1.25m-71.134 0-2.235 2.537-2.283 2.593m4.518-5.13h35.568m-35.568 0H350.53m71.135 0-3.766 5.13m3.766-5.13h35.566m0 0-3.011 5.13m-72.641 0h36.32m-36.32 0h-36.32m68.712 5.352 3.928-5.352m-3.928 5.352-4.102 5.588m4.102-5.588h37.106m-33.178-5.352h36.321m-108.961 0h-36.32m36.32 0 5.271-5.13m103.69 5.13-3.143 5.352M350.53 55.509h-35.567m94.906 16.071-1.054 1.436-3.233 4.406m4.287-5.842h37.926m3.282-5.588-3.282 5.588m0 0-.42.716-1.275 2.172-1.735 2.954m-77.566 0-5.383 6.111m5.383-6.111h38.783m-38.783 0h-38.784m77.567 0-4.486 6.111m4.486-6.111h38.783m0 0-3.588 6.111m-79.361 0h39.68m-39.68 0h-39.681m74.663 6.401 2.963-4.035 1.735-2.366m-4.698 6.401-4.926 6.712m4.926-6.712h40.621m-35.923-6.4h39.681m-119.042 0h-39.681m39.681 0 6.28-6.112m112.762 6.111-3.758 6.401M328.015 77.422h-38.784m102.241 19.224-5.171 7.045m5.171-7.046h41.606m3.941-6.71-3.941 6.71m0 0-4.137 7.046m-85.279 0-6.522 7.404m6.522-7.404h42.639m-42.639 0h-42.64m85.279 0-5.434 7.404m5.434-7.404h42.64m0 0-4.348 7.404m-87.453 0h43.727m-43.727 0h-43.726m81.734 7.792 5.719-7.792m-5.719 7.792-6.026 8.21m6.026-8.21h44.871m-39.152-7.792h43.726m-131.179 0h-43.727m43.727 0 7.608-7.404m123.571 7.404-4.574 7.792m-118.997-15.196h-42.64m110.74 23.406-6.358 8.664m6.358-8.664h46.076m4.821-8.21-4.821 8.21m0 0-5.087 8.664m-94.695 0-8.063 9.155m8.063-9.155h47.348m-47.348 0h-47.347m94.695 0-6.72 9.155m6.72-9.155h47.347m0 0-5.376 9.155m-97.382 0h48.691m-48.691 0h-48.691m90.27 9.69 7.112-9.69m-7.112 9.69-7.54 10.273m7.54-10.273h50.114m-43.002-9.69h48.691m-146.073 0h-48.691m48.691 0 9.407-9.155m136.666 9.155-5.689 9.69m-130.977-18.845h-47.347m120.67 29.118-8.009 10.912m8.009-10.912h51.621m6.033-10.273-6.033 10.273m0 0-6.406 10.912m-106.447 0L269.935 187.4m10.225-11.609h53.223m-53.223 0h-53.223m106.446 0-8.52 11.609m8.52-11.609h53.224m0 0L379.79 187.4m-109.855 0h54.928m-54.928 0h-54.927m100.77 12.378 9.085-12.378m-9.085 12.378-9.707 13.224m9.707-13.224h56.744M324.863 187.4h54.927m-164.782 0H160.08m54.928 0 11.929-11.609M379.79 187.4l-7.268 12.378m-145.585-23.987h-53.224m132.358 37.211-10.393 14.162m10.393-14.162h58.686m7.765-13.224-7.765 13.224m0 0-8.315 14.162m-121.529 0-13.388 15.202m13.388-15.202h60.765m-60.765 0h-60.764m121.529 0-11.157 15.202m11.157-15.202h60.764m0 0-8.926 15.202m-125.991 0h62.996m-62.996 0h-62.996m113.983 16.36 12.009-16.36m-12.009 16.36-12.959 17.658m12.959-17.658h65.398m-53.389-16.36h62.995m-188.987 0H95.533m62.996 0 15.62-15.202m173.367 15.202-9.606 16.36m-163.761-31.562h-60.765m146.169 49.22-14.03 19.115m14.03-19.115h67.989m10.368-17.658-10.368 17.658m0 0-11.224 19.115m-141.59 0-18.285 20.76m18.285-20.76h70.795m-70.795 0h-70.796m141.591 0-15.238 20.76m15.238-20.76h70.795m0 0-12.19 20.76m-147.685 0h73.842m-73.842 0H82.6m131.077 22.629 16.608-22.629m-16.608 22.629-18.173 24.76m18.173-24.76h77.165m-60.557-22.629h73.843m-221.528 0H8.757m73.843 0 21.332-20.76m200.196 20.76-13.286 22.629m-186.91-43.389H33.137m162.367 68.149-19.969 27.208m19.969-27.208h80.8m14.538-24.76-14.538 24.76m0 0-15.976 27.208m-169.586 0-26.455 30.037m26.455-30.037h84.793m-84.793 0H5.95m169.586 0-22.046 30.037m22.046-30.037h84.793m0 0-17.637 30.037m-89.202 0H64.287m89.202 0h89.202m-178.404 0h-72.96M5.95 390.856l-14.621 14.23m14.621-14.23H-8.672M294.43 21.038l-5.524 3.763m5.524-3.763h30.506m-30.506 0h-30.507m65.811-3.632 4.633-3.506m-4.633 3.506-4.798 3.632m4.798-3.632h29.974m-25.34-3.506h29.459m-29.459 0 4.476-3.388m-28.962 0h28.962m-28.962 0 1.823-1.242 2.986-2.034m-4.809 3.276H280.92m44.017 10.526-4.971 3.763m4.971-3.763h30.507m4.265-3.632 4.118-3.506m-4.118 3.506-4.265 3.632m8.383-7.138 2.997-2.552.982-.836m-28.962 0 .549-.416 3.779-2.86m-4.328 3.276h28.962m-12.362 10.526-4.419 3.763m45.743-14.29 3.365-3.275m-3.365 3.276h-28.962m0 0 1.458-1.242 2.389-2.034M288.907 24.8h31.059m-31.059 0h-31.059m56.964 3.901 5.154-3.901m-5.154 3.901-5.348 4.048m5.348-4.048h31.632M319.966 24.8h31.059m-93.177 0h-31.06m31.06 0 6.076-3.763m87.101 3.763-4.581 3.901m-82.52-7.664h-30.507m76.047 11.712-1.369 1.036-4.185 3.167m5.554-4.203h32.226m4.754-4.048-4.754 4.048m0 0-4.936 4.203m-65.687 0-.787.538-5.623 3.83m6.41-4.368h32.843m-32.843 0h-32.843m65.686 0-5.769 4.368m5.769-4.368h32.844m0 0-.63.538-4.499 3.83m-66.968 0h33.484m-33.484 0h-33.485m60.97 4.541 5.999-4.541m-5.999 4.541-6.244 4.726m6.244-4.726h34.15m-28.151-4.541h33.484m-100.453 0h-33.484m33.484 0 7.052-4.368m93.401 4.368-5.333 4.541m-88.068-8.909h-32.843m80.517 13.635-6.502 4.922m6.502-4.922h34.845m5.549-4.726-5.549 4.726m0 0-5.78 4.922m-71.134 0-7.53 5.13m7.53-5.13h35.567m-35.567 0h-35.567m71.134 0-6.777 5.13m6.777-5.13h35.567m0 0-6.024 5.13m-72.64 0h36.32m-36.32 0h-36.321m65.57 5.352 7.071-5.352m-7.071 5.352-7.384 5.588m7.384-5.588h37.106m-30.035-5.352h36.32m-108.961 0h-36.32m36.32 0 8.284-5.13m100.677 5.13-6.285 5.352m-94.392-10.483h-35.567m85.469 16.071-7.716 5.842m7.716-5.842h37.927m6.563-5.588-6.563 5.588m0 0-6.86 5.842m-77.567 0-8.971 6.111m8.971-6.111h38.784m-38.784 0H172.88m77.568 0-8.074 6.111m8.074-6.111h38.783m0 0-7.177 6.111m-79.361 0h39.681m-39.681 0h-39.681m70.905 6.401 8.457-6.4m-8.457 6.4-8.867 6.712m8.867-6.712h40.62m-32.163-6.4h39.68m-119.042 0h-39.681m39.681 0 9.868-6.112m109.174 6.111-7.517 6.401M172.88 77.422h-38.783m90.953 19.224-9.307 7.045m9.307-7.046h41.605m7.882-6.71-7.882 6.71m0 0-8.273 7.046m-85.279 0-10.869 7.404m10.869-7.404h42.64m-42.64 0h-42.64m85.28 0-9.783 7.404m9.783-7.404h42.639m0 0-8.695 7.404m-87.453 0h43.726m-43.726 0h-43.727m77.16 7.792 10.293-7.792m-10.293 7.792-10.847 8.21m10.847-8.21h44.87m-34.577-7.792h43.727m-131.18 0H74.781m43.726 0 11.956-7.404m119.224 7.404-9.15 7.792m-110.074-15.196h-42.64m96.997 23.406-11.446 8.664m11.446-8.664h46.076m9.641-8.21-9.641 8.21m0 0-10.174 8.664m-94.695 0-13.439 9.155m13.439-9.155h47.347m-47.347 0H78.68m94.694 0-12.095 9.155m12.095-9.155h47.348m0 0-10.751 9.155m-97.383 0h48.691m-48.691 0h-48.69m84.579 9.69 12.802-9.69m-12.802 9.69-13.572 10.273m13.572-10.273h50.114m-37.312-9.69h48.692m-146.074 0H15.206m48.691 0 14.783-9.155m131.291 9.155-11.38 9.69m-119.91-18.845H31.332m103.572 29.118-14.415 10.912m14.415-10.912h51.622m12.064-10.273-12.064 10.273m0 0-12.814 10.912m-106.446 0L50.225 187.4m17.042-11.609h53.223m-53.223 0H14.043m106.447 0L105.153 187.4m15.337-11.609h53.223m0 0L160.08 187.4m-109.855 0h54.928m-54.928 0H-4.702M88.8 199.778l16.353-12.378M88.8 199.778l-17.471 13.224m17.47-13.224h56.745M105.153 187.4h54.927m-164.782 0 18.745-11.609M-4.702 187.4h-3.97m3.97 0-3.97 2.459M160.08 187.4l-14.536 12.378m-131.5-23.987H-8.673m80 37.211L52.62 227.164m18.709-14.162h58.685m15.53-13.224-15.53 13.224m0 0-16.63 14.162m-121.529 0H52.62m-60.765 0h-.527m.527 0-.527.359m61.292-.359-20.084 15.202m20.084-15.202h60.764m0 0-17.851 15.202m-84.61 16.36 21.613-16.36m-21.614 16.36H76.32m-65.398 0H-8.672m19.594 0-19.594 14.832m41.208-31.192h62.997m-62.997 0H-8.672m104.205 0-19.213 16.36m0 0-20.736 17.658m0 0-22.447 19.115m22.447-19.115H-8.672m41.809 19.115-24.38 20.76m24.38-20.76h-41.81m17.43 20.76h-17.43m17.43 0-17.43 14.842M172.404 21.038 164.67 24.8m7.733-3.763h30.507m-30.507 0h-30.507m67.943-3.632 6.692-3.506m-6.692 3.506-6.929 3.632m6.929-3.632h29.975M216.531 13.9h29.459m-29.459 0 6.466-3.388m-28.962 0h28.962m-28.962 0 6.732-3.276m-6.732 3.276h-28.961m37.836 10.526-7.181 3.763m7.181-3.763h30.507m6.397-3.632 6.176-3.506m-6.176 3.506-6.397 3.632M245.99 13.9l5.969-3.388m-28.962 0 .792-.416 5.459-2.86m-6.251 3.276h28.962m-18.542 10.526-6.629 3.763m54.132-14.29 5.289-3.275m-5.289 3.276h-28.961m0 0 .731-.416 5.039-2.86M164.67 24.8h31.059m-31.059 0h-31.059m54.673 3.901 7.445-3.901m-7.445 3.901-7.726 4.048m7.726-4.048h31.632M195.729 24.8h31.059m-93.177 0h-31.059m31.059 0 8.285-3.763m84.892 3.763-6.872 3.901m-78.02-7.664h-30.507m69.169 11.712-8.02 4.203m8.02-4.203h32.227m7.131-4.048-.877.498-6.254 3.55m0 0-7.404 4.203m-65.687 0-8.975 4.368m8.975-4.368h32.844m-32.844 0h-32.843m65.687 0-8.334 4.368m8.334-4.368h32.843m0 0-7.693 4.368m-66.969 0h33.485m-33.485 0H97.235m58.303 4.541 8.666-4.541m-8.666 4.541-9.018 4.726m9.018-4.726h34.151m-25.485-4.541h33.484m-100.453 0H63.751m33.484 0 9.616-4.368m90.837 4.368-7.999 4.541m-82.838-8.909H74.008m72.512 13.635-9.392 4.922m9.392-4.922h34.844m8.325-4.726-8.325 4.726m0 0-8.669 4.922m-71.134 0-10.543 5.13m10.543-5.13h35.567m-35.567 0H65.993m71.135 0-9.79 5.13m9.79-5.13h35.567m0 0-9.037 5.13m-72.64 0h36.32m-36.32 0h-36.32m62.427 5.352 10.213-5.352m-10.213 5.352L106.46 71.58m10.665-5.588h37.106m-26.893-5.352h36.32m-108.96 0h-36.32m36.32 0 11.295-5.13m97.665 5.13-9.427 5.352M65.993 55.509H30.427M106.46 71.58l-11.147 5.842m11.147-5.842h37.926m9.845-5.588-9.845 5.588m0 0-10.289 5.842m-77.568 0-12.56 6.111m12.56-6.111h38.784m-38.784 0H17.746m77.567 0-11.662 6.111m11.662-6.111h38.784m0 0-10.766 6.111m-79.361 0h39.68m-12.215 6.401 12.216-6.4m-12.216 6.4-12.807 6.712m12.807-6.712h40.621m-28.405-6.4h39.68m0 0-11.275 6.4m-94.31-12.512H-8.672m67.3 19.224-13.444 7.045m13.444-7.046h41.605m11.823-6.71-11.823 6.71m0 0-12.41 7.046m-85.28 0h42.64m-42.64 0H-8.671m11.216 0-11.216 5.458m53.856-5.458-14.13 7.404m14.13-7.404h42.64m0 0-13.043 7.404m-58.596 7.792 14.869-7.792m-14.869 7.792-15.667 8.21m15.667-8.21h44.87m-44.87 0H-8.672m39.726-7.792H74.78m-43.727 0H-8.672m83.453 0-13.725 7.792m-69.852-9.678.124-.06m9.19 17.948h46.075m-46.075 0h-9.19m9.19 0-9.19 4.816m69.728-13.026-14.463 8.21m0 0-15.26 8.664m0 0-16.127 9.155m16.127-9.155H-8.672m6.809 18.845 17.069-9.69m-17.07 9.69h-6.808m6.809 0-6.81 3.866m23.879-13.556H-8.672M50.375 21.038 40.433 24.8m9.942-3.763h30.507m-30.507 0H19.868m70.076-3.632 8.75-3.506m-8.75 3.506-9.062 3.632m9.062-3.632h29.974M98.695 13.9h29.459m-29.46 0 8.456-3.388m-28.962 0h28.962m-28.962 0 8.655-3.276m-8.655 3.276H49.226m31.656 10.526-9.39 3.763m9.39-3.763h30.507m8.529-3.632 8.236-3.506m-8.236 3.506-8.529 3.632m16.765-7.138 7.957-3.388m-28.961 0h28.961m-28.961 0 8.174-3.276m-3.935 13.802-8.837 3.763m62.522-14.29 7.212-3.275m-7.212 3.276h-28.963m0 0 7.694-3.276M40.433 24.8h31.06m-31.06 0H9.373m52.383 3.901 9.736-3.901m-9.736 3.901L51.654 32.75m10.102-4.048h31.632m-21.896-3.901h31.06m-93.178 0 10.494-3.763M9.374 24.8H-8.672m111.224 0-9.164 3.901m-73.52-7.664h-28.54M51.654 32.75l-10.49 4.203m10.49-4.203H83.88m9.508-4.048L83.88 32.75m0 0-9.872 4.203m-65.686 0-11.54 4.368m11.54-4.368h32.843m-32.843 0H-8.672m49.837 0-10.899 4.368m10.899-4.368h32.843m0 0-10.257 4.368m-44.817 4.541 11.332-4.541m-11.332 4.541L7.141 50.588m11.793-4.726h34.15m-34.15 0H-8.672m38.938-4.541H-3.218m33.484 0h33.485m-66.969 0-5.454 2.064m5.454-2.064h-5.454m72.423 0-10.666 4.541M7.14 50.588-5.14 55.51m12.282-4.922h34.845m-34.845 0H-8.672m61.757-4.726-11.1 4.726m0 0L30.428 55.51m-35.568 0h35.568m-35.568 0-3.531 1.415m3.531-1.415h-3.531m39.099 0-12.05 5.13m-12.57 5.352 12.57-5.352m-12.57 5.352L-7.317 71.58m13.126-5.588h-14.48m27.05-5.352h-27.05m-.19 0h.19m1.354 10.94h-1.354m1.354 0-1.354.577m-.328.14.328-.14m8.694-54.75L10.317 13.9M.022 17.406h-8.694m8.694 0-8.694 2.962m18.99-6.468 9.947-3.388M10.317 13.9h-18.99m57.9-3.388 9.135-3.276m-9.136 3.276H20.265m0 0 9.616-3.276m-9.616 3.276H-8.672M998.233 7.236h28.477m-28.477 0h-28.481m49.988-3.169 1.72.783 5.25 2.386m-6.97-3.169h28.01m-21.04 3.169h28.48m-7.44-3.169 1.84.783.93.393 4.67 1.993m0 0h28.49m0 0h28.48m-142.408 0h-28.481m170.889 0h28.48m0 0-8.84-3.169m8.84 3.169h28.48m-37.32-3.169h28.02M884.309 7.236h28.482m-28.482 0h-28.481m51.846-3.169 1.263.783.636.393 3.218 1.993m-5.117-3.169h28.016m-22.899 3.169h28.48m-5.581-3.169 5.581 3.169m-85.443 0h-28.481m-56.961 0h28.481m-28.481 0h-28.481m53.705-3.169.402.39.402.393.405.393 2.048 1.993m-3.257-3.169h28.016m-24.759 3.169h28.48m-3.721-3.169 3.721 3.169m-85.442 0h-28.482m-56.961 0h28.481m-28.481 0h-28.481m55.567-3.169 1.395 3.169m-1.395-3.169h28.015m-26.62 3.169h28.48m-1.86-3.169.23.39.23.393.231.393 1.169 1.993m-85.442 0H599.5m-56.962 0h28.481m-28.481 0h-28.48m57.426-3.169-.465 3.169m.465-3.169H599.5m-28.481 3.169H599.5m0-3.169v3.169m-85.442 0h-28.482m-56.962 0h28.481m-28.481 0h-28.481m59.288-3.169-.574.783-1.163 1.583-.589.803m2.326-3.169h28.016m-30.342 3.169h28.481m1.861-3.169-.23.39-.23.393-.231.393-1.17 1.993m-85.443 0h-28.48m-56.962 0h28.481m-28.481 0h-28.482m61.149-3.169-1.034.783-.52.393-2.632 1.993m4.186-3.169h28.016m-32.202 3.169h28.481m3.721-3.169-.459.39-3.262 2.779m-85.444 0h-28.48m-56.962 0h28.481m-28.481 0h-28.481m63.009-3.169-1.494.783-.751.393-3.802 1.993m6.047-3.169h28.016m-34.063 3.169h28.481m5.582-3.169-.688.39-4.894 2.779m-85.443 0h-28.481m-56.962 0h28.481m-28.481 0h-28.48m64.868-3.169-7.907 3.169m7.907-3.169h28.016m-35.923 3.169h28.481m7.442-3.169-1.837.783-.925.393-4.68 1.993m-85.443 0h-28.48M11.168 4.067 1.4 7.236m9.768-3.169h28.016m-28.015 0H-8.672M1.4 7.236h28.481m-28.48 0-10.073 3.268M1.4 7.236H-8.672m47.856-3.169-2.297.783-7.006 2.386M1159.82 4.067l2.29.783 7.01 2.386m0 0h28.48m0 0 10.07 3.268m-10.07-3.268h10.07m0 151.236v-3.866m0 3.866v6.407m0-10.273v-9.69m0 19.963v10.912m0 0V187.4m0-103.867v-6.111m0 6.111v5.887m0-85.353v3.169m0 0v3.268m0 0 .03.008h-.03m0-.008v.008m0 0V13.9m0 0v3.506m0 0v2.962m0 0v.67m0 0V24.8m0 0v3.901m0 0v2.568m0 0v1.48m0 0v4.203m0 0v4.368m0 0v2.064m0 0v2.477m0 0v4.726m0 0v4.922m0 0v1.415m0 0v3.715m0 0v5.352m0 0v5.588m0 0v.577m0 0v5.265m0 12.512v6.712m0-6.712v-.514m0 7.225v7.046m0 0v5.458m0 0v1.946m0 0v7.792m0 0v8.21m0 0v4.816m0 0v3.848m0 0v9.155m0 42.484v2.459m0 0v9.919m0 0v13.224m0 0v14.162m0 0v.359m0 0v14.843m0 0v16.36m0 0v14.832m0 0v2.826m0 0v19.115m0 0v20.76m0 0V331.1m0 0v7.787m0 0v24.76m0 0v27.208m0 0v14.23m0 0v15.807m0 0V421H-8.672v-.107m0-330.959v6.712m0-6.712v-.514m0 0v-5.887m0 0v-6.111m0 0v-5.265m0 0v-.577m0 0v-5.588m0 0V60.64m0 0v-3.715m0 0V55.51m0 0v-4.922m0 0v-4.726m0 0v-2.477m0 0v-2.064m0 0v-4.368m0 0V32.75m0 0v-1.48m0 0v-2.568m0 0v-3.901m0 0v-3.763m0 0v-.67m0 0v-2.962m0 0V13.9m0 0v-3.388m0 0h-.025l.025-.008m0 .008v-.008m0 0V7.236m0 0V4.067m0 416.826v-15.807m0 0v-14.23m0 0v-27.208m0 0v-24.76m0 0v-7.787m0 0v-14.842m0 0v-20.76m0 0v-19.115m0 0v-2.826m0 0v-14.832m0 0v-16.36m0 0v-14.843m0 0v-.359m0 0v-14.162m0 0v-13.224m0 0v-9.919m0 0V187.4m0 0v-11.609m0 0v-10.912m0 0v-6.407m0 0v-3.866m0 0v-9.69m0 0v-9.155m0 0v-3.848m0 0v-4.816m0 0v-8.21m0 0v-7.792m0 0v-1.946m0 0v-5.458m0 0v-7.046"/><defs><linearGradient id="a" x1="599.5" x2="599.5" y1="1" y2="295.471" gradientUnits="userSpaceOnUse"><stop stop-color="#E4FF3F" stop-opacity="0"/><stop offset="1" stop-color="#E4FF3F"/></linearGradient></defs></svg>