<svg xmlns="http://www.w3.org/2000/svg" width="1200" height="648" fill="none"><path stroke="url(#a)" stroke-linecap="round" stroke-linejoin="round" stroke-miterlimit="10" d="M11.168 642.209 20.622 647m-9.454-4.791h28.016m-28.016 0L1.4 637.26m9.768 4.949h-19.84M20.621 647l-3.44-.002-3.404-.01-3.334-.03-3.229-.057-3.089-.093-2.916-.141-2.708-.194-2.514-.249-2.157-.344-1.964-.398-.54-.139v-3.134M20.622 647h27.566m0 0h27.565m-27.565 0-9.004-4.791M75.754 647h27.565m-27.566 0-8.553-4.791M103.32 647h27.566m-27.566 0-8.104-4.791m35.67 4.791h27.565m-27.565 0-7.654-4.791M158.45 647h27.566m-27.566 0-7.203-4.791M186.016 647h27.566m-27.566 0-6.753-4.791M213.582 647h27.565m-27.565 0-6.303-4.791M241.147 647h27.566m-27.566 0-5.852-4.791M268.713 647h27.565m-27.565 0-5.403-4.791M296.278 647h27.566m-27.566 0-4.952-4.791M323.844 647h27.565m-27.565 0-4.502-4.791M351.409 647h27.566m-27.566 0-1-1.184-1.517-1.792-1.534-1.815M378.975 647h27.566m-27.566 0-.889-1.184-2.712-3.607M406.541 647h27.565m-27.565 0-3.151-4.791M434.106 647h27.566m-27.566 0-1.002-1.779-1.016-1.799-.34-.606-.343-.607M461.672 647h27.566m-27.566 0-.835-1.779-.282-.597-.282-.599-.852-1.816M489.238 647h27.565m-27.565 0-1.801-4.791M516.803 647l-.167-.59-.166-.594-.846-3-.172-.607m1.351 4.791h27.565m0 0h27.567m-27.567 0-.9-4.791M571.935 647H599.5m-27.565 0-.168-1.779-.283-3.012M599.5 647h27.565m-27.565 0v-4.791M627.065 647h27.566m-27.566 0 .168-1.779.283-3.012M654.631 647h27.566m-27.566 0 .901-4.791M682.197 647l.166-.59.167-.594.846-3 .171-.607m-1.35 4.791h27.565m0 0h27.566m-27.566 0 1.573-4.184.228-.607M737.328 647h27.566m-27.566 0 .835-1.779.282-.597.565-1.202.283-.605.286-.608M764.894 647h27.565m-27.565 0 1.002-1.779 1.015-1.799.341-.605.343-.608M792.459 647h27.566m-27.566 0 3.151-4.791M820.025 647h27.566m-27.566 0 .889-1.184 2.712-3.607M847.591 647h27.565m-27.565 0 4.051-4.791M875.156 647h27.565m-27.565 0 4.502-4.791M902.721 647h27.567m-27.567 0 4.953-4.791M930.288 647h27.565m-27.565 0 5.401-4.791M957.853 647h27.565m-27.565 0 5.852-4.791M985.418 647h27.562m-27.562 0 6.303-4.791M1012.98 647h27.57m-27.57 0 6.76-4.791m20.81 4.791h27.57m-27.57 0 7.2-4.791m20.37 4.791h27.56m-27.56 0 7.65-4.791m19.91 4.791h27.57m-27.57 0 8.1-4.791m19.47 4.791h27.56m-27.56 0 8.55-4.791m19.01 4.791h27.57m-27.57 0 9.01-4.791m18.56 4.791 3.44-.002 3.4-.01 3.34-.029 3.22-.058 3.09-.093 2.92-.14 2.71-.195 2.51-.249 2.16-.344 1.96-.398.54-.139v-3.134M1178.38 647l9.45-4.791m-56.03 0h-28.02m28.02 0h28.02m-28.02 0 8.84-4.949m-36.86 4.949 8.38-4.949m-8.38 4.949h-28.01m-56.03 0h-28.019m28.019 0h28.01m-28.01 0 1.72-1.222 5.25-3.727m-34.989 4.949 6.512-4.949m-6.512 4.949h-28.016m-56.031 0h-28.016m28.016 0h28.015m-28.015 0 1.263-1.222.636-.614 3.218-3.113m-33.133 4.949.573-.609.575-.613 3.503-3.727m-4.651 4.949h-28.016m-56.032 0 .402-.609 2.855-4.34m-3.257 4.949h-28.015m28.015 0h28.016m-56.031 0 .689-1.222.347-.614.348-.618 1.407-2.495m-2.791 4.949h-28.016m-56.032 0h-28.015m28.015 0h28.016m-28.016 0 1.395-4.949m-29.41 4.949.114-.609.115-.613.116-.614.35-1.86.235-1.253m-.93 4.949h-28.016m-56.032 0h-28.016m28.016 0H599.5m-28.016 0-.465-4.949m-27.551 4.949-.114-.609-.115-.613-.116-.614-.585-3.113m.93 4.949h-28.016m-56.031 0h-28.016m28.016 0h28.016m-28.016 0-.574-1.222-1.163-2.474-.294-.625-.295-.628m-25.69 4.949-.689-1.222-.347-.614-.348-.618-1.407-2.495m2.791 4.949H403.39m-56.032 0h-28.016m28.016 0h28.016m-28.016 0-1.034-1.222-.52-.614-2.632-3.113m-23.83 4.949-.573-.609-.575-.613-3.503-3.727m4.651 4.949h-28.016m-56.031 0h-28.016m28.016 0h28.015m-28.015 0-1.494-1.222-.751-.614-3.802-3.113m-21.969 4.949-6.512-4.949m6.512 4.949h-28.016m-56.032 0H95.215m28.016 0h28.016m-28.016 0-7.907-4.949m-20.109 4.949-8.372-4.949m8.372 4.949H67.2m1140.57-44.8h-.1m-28.1 0-10.69 6.323m10.69-6.323 11.11-6.565m-11.11 6.565h-32.22m32.22 0h28.1m-38.79 6.323h31.63m-31.63 0-10.31 6.093m10.31-6.093h-31.64m63.27 0-10.88 6.093m10.88-6.093h7.16m-7.16 0 7.16-4.012M1169 621.375h-29.97m29.97 0-9.78 5.477m9.78-5.477h29.98m-29.98 0 10.13-5.672m-40.1 5.672-9.27 5.477m9.27-5.477 9.59-5.672m-9.59 5.672h-29.97m50.16 5.477h-29.46m29.46 0-9.45 5.292m9.45-5.292h29.46m-58.92 0h-29.45m29.45 0-8.95 5.292m87.17-134.533h-.31m-25.69 0-13.8 10.482m13.8-10.482 14.48-11.004m-14.48 11.004h-41.61m41.61 0h25.69m-39.49 10.482-13.15 9.998m13.15-9.998h-40.62m40.62 0h39.49m-12.96 9.998h-39.68m39.68 0-13.46 9.546m13.46-9.546h12.96m-12.96 0 12.96-9.194m-39.28 27.864h-37.92m37.92 0-12.3 8.728m12.3-8.728h37.93m-37.93 0 12.86-9.124m-50.78 9.124-11.49 8.728m11.49-8.728 12-9.124m-12 9.124h-37.93m63.55 8.728h-37.11m37.11 0h37.1m-37.1 0-11.79 8.36m-25.32-8.36-11 8.36m11-8.36h-37.1m40.29 24.059h-34.84m34.84 0-10.41 7.381m10.41-7.381h34.84m-34.84 0 10.84-7.687m-45.68 7.687-9.72 7.381m9.72-7.381 10.11-7.687m-10.11 7.687h-34.85m59.28 7.381h-34.15m34.15 0h34.16m-34.16 0-10 7.093m-24.15-7.093-9.33 7.093m9.33-7.093h-34.15m39.43 20.48h-32.22m32.22 0-8.91 6.323m8.91-6.323h32.23m-32.23 0 9.26-6.565m-41.48 6.565-8.32 6.323m8.32-6.323 8.64-6.565m-8.64 6.565h-32.23m55.54 6.323h-31.63m31.63 0h31.63m-31.63 0-8.59 6.093m-23.04-6.093-8.02 6.093m8.02-6.093h-31.63m38.39 17.643h-29.98m29.98 0-7.72 5.477m7.72-5.477h29.97m-29.97 0 7.99-5.672m-37.97 5.672-7.2 5.477m7.2-5.477 7.47-5.672m-7.47 5.672h-29.969m52.229 5.477h-29.46m29.46 0-7.46 5.292m7.46-5.292h29.46m-58.92 0h-29.461m29.461 0-6.97 5.292m181.4-316.271-19.42 20.655m19.42-20.655 20.78-22.119m-20.78 22.119h-58.69m58.69 0h21.31m-40.73 20.655-18.17 19.333m18.17-19.333h-56.74m56.74 0h40.73m-40.33 54.508h-51.62m51.62 0-16.59 16.046m16.59-16.046 17.62-17.042m-17.62 17.042h40.33m-91.95 0-15.08 16.046m15.08-16.046 16.01-17.042m-16.01 17.042h-51.62m86.65 16.046h-50.11m50.11 0h50.11m-50.11 0-15.65 15.136m-34.46-15.136-14.23 15.136m14.23-15.136h-50.12m55.81 42.967h-46.07m46.07 0-13.26 12.823m13.26-12.823h46.08m-46.08 0 13.99-13.533m-60.06 13.533-12.06 12.823m12.06-12.823 12.71-13.533m-12.71 13.533h-46.08m78.89 12.823h-44.87m44.87 0h44.87m-44.87 0-12.58 12.17m-32.29-12.17-11.43 12.17m11.43-12.17h-44.87m53.83 34.739h-41.6m41.6 0-10.84 10.482m10.84-10.482h41.61m-41.61 0 11.38-11.004m-52.98 11.004-9.86 10.482m9.86-10.482 10.34-11.004m-10.34 11.004h-41.61m72.37 10.482h-40.62m40.62 0h40.62m-40.62 0-10.33 9.998m-30.29-9.998-9.393 9.998m9.393-9.998h-40.617m51.607 28.668h-37.929m37.929 0-9.03 8.728m9.03-8.728h37.92m-37.92 0 9.43-9.124m-47.359 9.124-8.204 8.728m8.204-8.728 8.575-9.124m-8.575 9.124h-37.925m66.824 8.728h-37.103m37.103 0h37.11m-37.11 0-8.638 8.36m-28.465-8.36-7.856 8.36m7.856-8.36h-37.105m49.339 24.059h-34.844m34.844 0-7.63 7.381m7.63-7.381h34.849m-34.849 0 7.947-7.687m-42.791 7.687-.883.939-6.054 6.442m6.937-7.381 7.224-7.687m-7.224 7.687h-34.845m62.059 7.381H941.01m34.151 0h34.149m-34.149 0-7.333 7.093m-26.818-7.093-6.667 7.093m6.667-7.093h-34.152m47.131 20.48h-32.227m32.227 0-6.537 6.323m6.537-6.323h32.226m-32.226 0 6.787-6.565m-39.014 6.565-5.942 6.323m5.942-6.323 2.287-2.433 3.884-4.132m-6.171 6.565h-32.226m57.916 6.323H915.82m31.632 0h31.632m-31.632 0-6.3 6.093m-25.332-6.093-5.727 6.093m5.727-6.093h-31.632m45.025 17.643h-29.974m29.974 0-5.662 5.477m5.662-5.477h29.974m-29.974 0 5.863-5.672m-35.837 5.672-3.878 4.125-.636.678-.634.674m5.148-5.477 5.33-5.672m-5.33 5.672h-29.974m54.286 5.477h-29.46m29.46 0-5.471 5.292m5.471-5.292h29.459m-58.919 0h-29.459m29.459 0-4.973 5.292M1165.09 80.579h-80.8m80.8 0-25.44 38.673m25.44-38.673 27.96-42.496m-27.96 42.496h42.58m-123.38 0-21.8 38.673m21.8-38.673 23.97-42.496m-23.97 42.496h-80.79m136.15 38.673h-77.16m77.16 0-23.25 35.343m23.25-35.343h68.02m-145.18 0-19.93 35.343m19.93-35.343h-77.167m90.107 97.625h-67.99m67.99 0-18.15 27.58m18.15-27.58h67.99m-67.99 0 19.64-29.856m-87.63 29.856-15.555 27.58m15.555-27.58 16.83-29.856m-16.83 29.856h-67.992m117.832 27.58h-65.395m65.395 0h65.4m-65.4 0-16.81 25.553m-48.585-25.553-14.41 25.553m14.41-25.553h-65.397m83.812 71.416h-58.686m58.686 0-13.589 20.655m13.589-20.655h58.69m-58.69 0 14.55-22.119m-73.236 22.119-11.648 20.655m11.648-20.655 12.473-22.119m-12.473 22.119h-58.685m103.782 20.655h-56.745m56.745 0h56.749m-56.749 0-12.719 19.333m-44.026-19.333-10.901 19.333m10.901-19.333h-56.744m77.63 54.508H909.23m51.622 0-10.557 16.046m10.557-16.046h51.618m-51.618 0 11.211-17.042m-62.833 17.042-9.048 16.046m9.048-16.046 9.61-17.042m-9.61 17.042h-51.622m92.687 16.046h-50.113m50.113 0h50.115m-50.115 0-9.957 15.135m-40.156-15.135-8.535 15.135m8.535-15.135h-50.114m71.961 42.967h-46.076m46.076 0-8.436 12.823m8.436-12.823h46.075m-46.075 0 8.902-13.533m-54.978 13.533-7.231 12.823m7.231-12.823 7.631-13.533m-7.631 13.533h-46.075m83.715 12.823h-44.871m44.871 0h44.87m-44.87 0-8.007 12.17m-36.864-12.17-6.862 12.17m6.862-12.17h-44.87m66.887 34.739h-41.606m41.606 0-6.897 10.482m6.897-10.482h41.606m-41.606 0 7.239-11.004m-48.845 11.004-5.911 10.482m5.911-10.482 6.205-11.004m-6.205 11.004h-41.605m76.314 10.482h-40.62m40.62 0h40.621m-40.621 0-6.577 9.998m-34.043-9.998-5.638 9.998m5.638-9.998h-40.62m62.381 28.668h-37.926m37.926 0-5.743 8.728m5.743-8.728h37.926m-37.926 0 6.002-9.124m-43.928 9.124-4.922 8.728m4.922-8.728 5.144-9.124m-5.144 9.124h-37.926m70.109 8.728h-37.105m37.105 0h37.106m-37.106 0-5.499 8.359m-31.606-8.359-4.714 8.359m4.714-8.359h-37.106m58.384 24.059h-34.846m34.846 0-4.856 7.381m4.856-7.381h34.844m-34.844 0 5.057-7.687m-39.903 7.687.533-.943 3.803-6.744m-4.336 7.687-4.161 7.381m4.161-7.381h-34.844m64.834 7.381h-34.151m34.151 0h34.151m-34.151 0-4.667 7.093m-29.484-7.093-4 7.093m4-7.093h-34.151m54.829 20.48h-32.226m32.226 0-4.16 6.323m4.16-6.323h32.226m-32.226 0 4.318-6.565m-36.544 6.565-3.566 6.323m3.566-6.323 1.371-2.433.926-1.641 1.404-2.491m-3.701 6.565h-32.227m60.293 6.323h-31.632m31.632 0h31.632m-31.632 0-4.009 6.093m-27.623-6.093-1.304 2.311-.859 1.524-1.274 2.258m3.437-6.093H757.66m51.657 17.643h-29.973m29.973 0-2.714 4.125-.889 1.352m3.603-5.477h29.974m-29.974 0 3.258-4.952.473-.72m-33.704 5.672-2.327 4.125-.382.678-.38.674m3.089-5.477 1.585-2.811 1.613-2.861m-3.198 5.672h-29.975m56.345 5.477h-29.459m29.459 0-3.482 5.292m3.482-5.292h29.459m-58.918 0h-29.459m29.459 0-2.984 5.292m68.626-551.565h-80.799m80.799 0-10.903 38.673m10.903-38.673h80.799m-80.799 0 11.982-42.496m-92.781 42.496-7.269 38.673m7.269-38.673 7.988-42.496m-7.988 42.496h-80.799m150.695 38.673h-77.165m77.165 0h77.164m-77.164 0-9.965 35.343m-67.2-35.343-6.643 35.343m6.643-35.343h-77.165m126.804 97.625h-67.989m67.989 0-7.775 27.58m7.775-27.58h67.99m-67.99 0 8.418-29.856m-76.407 29.856-5.184 27.58m5.184-27.58 5.612-29.856m-5.612 29.856h-67.99m128.204 27.58h-65.398m65.398 0h65.397m-65.397 0-7.205 25.553m-58.193-25.553-4.803 25.553m4.803-25.553h-65.397m110.659 71.416h-58.685m58.685 0-5.824 20.655m5.824-20.655h58.686m-58.686 0 6.236-22.119m-64.921 22.119-3.883 20.655m3.883-20.655 4.157-22.119m-4.157 22.119h-58.687m111.548 20.655h-56.744m56.744 0h56.745m-56.745 0-5.451 19.333m-51.293-19.333-3.634 19.333m3.634-19.333h-56.745m98.121 54.508h-51.621m51.621 0-4.524 16.046m4.524-16.046h51.622m-51.622 0 4.805-17.043m-56.426 17.043-3.017 16.046m3.017-16.046 3.203-17.043m-3.203 17.043h-51.622m98.719 16.046h-50.114m50.114 0h50.113m-50.113 0-4.267 15.135m-45.847-15.135-2.845 15.135m2.845-15.135h-50.114m88.114 42.967h-46.076m46.076 0-3.616 12.823m3.616-12.823h46.075m-46.075 0 3.815-13.533m-49.891 13.533-2.41 12.823m2.41-12.823 2.543-13.533m-2.543 13.533h-46.076m88.536 12.823h-44.87m44.87 0h44.87m-44.87 0-3.431 12.17m-41.439-12.17-2.288 12.17m2.288-12.17H644.37m79.947 34.739h-41.606m41.606 0-2.956 10.482m2.956-10.482h41.605m-41.605 0 3.102-11.005m-44.708 11.005-1.971 10.482m1.971-10.482 2.069-11.005m-2.069 11.005h-41.606m80.256 10.482H680.74m40.621 0h40.62m-40.62 0-1.073 3.804-1.746 6.194m-37.802-9.998-1.879 9.998m1.879-9.998h-40.62m73.158 28.668h-37.926m37.926 0-2.461 8.728m2.461-8.728h37.927m-37.927 0 1.919-6.805.654-2.319m-40.499 9.124-.624 3.318-1.016 5.41m1.64-8.728 1.715-9.124m-1.715 9.124h-37.926m73.391 8.728-.3 1.065-2.057 7.294m2.357-8.359h-37.105m37.105 0h37.106m-74.211 0-.598 3.177-.196 1.048-.197 1.041-.581 3.093m1.572-8.359h-37.107m67.429 24.059H669.19m34.844 0-1.051 3.728-.26.92-.258.916-.257.911-.255.906m2.081-7.381h34.844m-34.844 0 2.167-7.687m-37.011 7.687-1.046 5.564-.172.911-.17.906m1.388-7.381 1.444-7.687m-1.444 7.687h-34.846m67.609 7.381h-34.151m34.151 0h34.151m-34.151 0-1.259 4.466-.248.881-.493 1.746m-32.151-7.093-.839 4.466-.166.881-.164.875-.164.871m1.333-7.093h-34.151m62.527 20.48h-32.226m32.226 0-1.782 6.322m1.782-6.322h32.227m-32.227 0 .457-1.618.693-2.456.702-2.491m-34.078 6.565.152-.807.926-4.924.156-.834m-1.234 6.565-1.188 6.322m1.188-6.322h-32.226m62.67 6.322h-31.632m31.632 0 31.632.001m-31.632-.001-1.718 6.094m-29.914-6.094-.435 2.312-.143.764-.143.76-.425 2.258m1.146-6.094h-31.632m58.289 17.644h-29.973m29.973 0-1.163 4.125-.38 1.352m1.543-5.477h29.974m-29.974 0 .594-2.104.199-.707.201-.711.606-2.15m-31.573 5.672-.131.695-.259 1.381-.258 1.369-.381 2.032m1.029-5.477.528-2.811.133-.711.27-1.43.135-.72m-1.066 5.672h-29.974m58.404 5.477h-29.459m29.459 0-1.309 4.64-.184.652m1.493-5.292h29.459m-58.918 0-.127.671-.126.669-.125.666-.124.662-.371 1.972-.123.652m.996-5.292h-29.46M518.701 80.579h-80.799m80.799 0 3.635 38.673m-3.635-38.673H599.5m-80.799 0-3.994-42.496m-76.805 42.496 7.269 38.673m-7.269-38.673-7.988-42.496m7.988 42.496h-80.799m165.233 38.673h-77.165m77.165 0H599.5m-77.164 0 3.321 35.343m-80.486-35.343 6.643 35.343m-6.643-35.343h-77.165m163.505 97.625h-67.99m67.99 0 2.591 27.58m-2.591-27.58H599.5m-67.989 0-2.807-29.856m-65.183 29.856 5.184 27.58m-5.184-27.58-5.612-29.856m5.612 29.856h-67.989m138.57 27.58h-65.397m65.397 0H599.5m-65.398 0 2.402 25.553m-67.799-25.553 4.803 25.553m-4.803-25.553h-65.398m137.508 71.416h-58.687m58.687 0 1.941 20.655m-1.941-20.655H599.5m-58.685 0-2.08-22.119m-56.607 22.119 3.883 20.655m-3.883-20.655-4.157-22.119m4.157 22.119h-58.685m119.313 20.655h-56.745m56.745 0H599.5m-56.744 0 1.817 19.333m-58.562-19.333 3.634 19.333m-3.634-19.333h-56.744m118.611 54.508h-51.622m51.622 0 1.509 16.046m-1.509-16.046H599.5m-51.622 0-1.601-17.043m-50.021 17.043 3.017 16.046m-3.017-16.046-3.203-17.043m3.203 17.043h-51.621m104.752 16.046h-50.114m50.114 0H599.5m-50.113 0 1.422 15.135m-51.536-15.135 2.845 15.135m-2.845-15.135h-50.114m104.266 42.967h-46.076m46.076 0 1.205 12.823m-1.205-12.823H599.5m-46.075 0-1.273-13.533m-44.803 13.533 2.41 12.823m-2.41-12.823-2.543-13.533m2.543 13.533h-46.076m93.357 12.823h-44.871m44.871 0h44.87m-44.87 0 1.144 12.17m-46.015-12.17 2.288 12.17m-2.288-12.17h-44.87m93.006 34.739h-41.606m41.606 0 .985 10.482m-.985-10.482H599.5m-41.605 0-1.035-11.005m-40.571 11.005 1.971 10.482m-1.971-10.482-2.069-11.005m2.069 11.005h-41.606m84.197 10.482h-40.62m40.62 0h40.62m-40.62 0 .939 9.998m-41.559-9.998 1.879 9.998m-1.879-9.998h-40.621m83.935 28.668h-37.926m37.926 0 .82 8.728m-.82-8.728H599.5m-37.926 0-.858-9.124m-37.068 9.124 1.44 7.658.2 1.07m-1.64-8.728-1.715-9.124m1.715 9.124h-37.926m76.672 8.728.1 1.065.686 7.294m-.786-8.359h-37.106m37.106 0H599.5m-74.212 0 .598 3.177.196 1.048.197 1.041.581 3.093m-1.572-8.359h-37.105m76.472 24.059H529.81m34.845 0 .694 7.381m-.694-7.381H599.5m-34.845 0-.267-2.845-.09-.959-.09-.963-.183-1.941-.092-.979m-34.123 7.687 1.046 5.564.342 1.817m-1.388-7.381-1.444-7.687m1.444 7.687h-34.844m70.383 7.381h-34.151m34.151 0H599.5m-34.151 0 .667 7.093m-34.818-7.093.839 4.466.166.881.164.875.164.871m-1.333-7.093h-34.151m70.227 20.48h-32.226m32.226 0 .594 6.322m-.594-6.322H599.5m-32.226 0-.617-6.565m-31.609 6.565-.152-.807-.926-4.924-.156-.834m1.234 6.565 1.188 6.322m-1.188-6.322h-32.227m65.047 6.322h-31.632m31.632 0H599.5m-31.632 0 .573 6.094m-32.205-6.094.435 2.312.143.764.143.76.425 2.258m-1.146-6.094h-31.632m64.922 17.644h-29.974m29.974 0 .515 5.477m-.515-5.477H599.5m-29.974 0-.533-5.672m-29.441 5.672.131.695.26 1.381.128.686.257 1.363.127.678.127.674m-1.03-5.477-.528-2.811-.133-.711-.27-1.43-.135-.72m1.066 5.672h-29.974m60.463 5.477.063.671.063.669.062.666.309 3.286m-.497-5.292h-29.459m29.459 0H599.5m-58.918 0h-29.46m29.46 0 .252 1.34.125.666.124.662.371 1.972.123.652M195.504 80.579h-80.799m80.799 0 18.173 38.673m-18.173-38.673h80.799m-80.799 0-19.969-42.496m-60.83 42.496 21.808 38.673m-21.808-38.673L90.742 38.083m23.963 42.496h-80.8m179.772 38.673h-77.164m77.164 0h77.165m-77.165 0 16.608 35.343m-93.772-35.343 19.93 35.343m-19.93-35.343H59.348m200.204 97.625h-67.989m67.989 0 12.96 27.58m-12.96-27.58h67.99m-67.99 0-14.029-29.856m-53.96 29.856 15.552 27.579m-15.552-27.579-16.835-29.856m16.835 29.856h-67.99m148.939 27.58-65.397-.001m65.397.001h65.398m-65.398 0 12.009 25.553m-77.406-25.554 14.41 25.554m-14.41-25.554h-65.398m164.354 71.417h-58.685m58.685 0 9.707 20.655m-9.707-20.655h58.686m-58.686 0-10.394-22.119m-48.291 22.119 11.647 20.655m-11.647-20.655-12.473-22.119m12.473 22.119H188.7m127.078 20.655h-56.745m56.745 0h56.744m-56.744 0 9.085 19.332m-65.83-19.332 10.902 19.332m-10.902-19.332h-56.744m139.103 54.508H289.77m51.622 0 7.54 16.045m-7.54-16.045h51.621m-51.621 0-8.009-17.043m-43.613 17.043 9.048 16.045m-9.048-16.045-9.61-17.043m9.61 17.043h-51.622m110.784 16.045h-50.114m50.114 0h50.114m-50.114 0 7.112 15.136m-57.226-15.136 8.535 15.136m-8.535-15.136h-50.113m120.417 42.968h-46.075m46.075 0 6.026 12.823m-6.026-12.823h46.076m-46.076 0-6.358-13.533m-39.717 13.533 7.231 12.823m-7.231-12.823-7.631-13.533m7.631 13.533h-46.076m98.177 12.823h-44.87m44.87 0h44.871m-44.871 0 5.719 12.17m-50.589-12.17 6.862 12.17m-6.862-12.17h-44.871m106.065 34.739h-41.605m41.605 0 4.926 10.482m-4.926-10.482h41.606m-41.606 0-5.171-11.005m-36.434 11.005 5.911 10.482m-5.911-10.482-6.206-11.005m6.206 11.005h-41.606m88.137 10.482h-40.62m40.62 0h40.62m-40.62 0 4.698 9.998m-45.318-9.998 5.638 9.998m-5.638-9.998h-40.62m94.711 28.668-.525-1.119-.529-1.124-3.233-6.881m4.287 9.124h-37.926m37.926 0 4.102 8.728m-4.102-8.728h37.926m-75.852 0 4.922 8.728m-4.922-8.728-5.144-9.124m5.144 9.124h-37.926m79.954 8.728h-37.106m37.106 0h37.106m-37.106 0 3.928 8.359m-41.034-8.359 4.714 8.359m-4.714-8.359H339.76m85.517 24.059h-34.845m34.845 0 3.468 7.381m-3.468-7.381h34.844m-34.844 0-3.612-7.687m-31.233 7.687 2.621 4.648 1.541 2.733m-4.162-7.381-4.335-7.687m4.335 7.687h-34.845m73.158 7.381h-34.151m34.151 0h34.151m-34.151 0 2.923 6.222.41.871m-37.484-7.093 4 7.093m-4-7.093h-34.151m77.926 20.48h-32.227m32.227 0 .753 1.603 2.218 4.719m-2.971-6.322h32.226m-32.226 0-.761-1.618-1.542-3.282-.782-1.665m-29.142 6.565 3.566 6.322m-3.566-6.322-1.371-2.433-.926-1.641-1.404-2.491m3.701 6.565h-32.226m67.424 6.322h-31.632m31.632 0h31.632m-31.632 0 2.157 4.593.707 1.501m-34.496-6.094 1.303 2.312.86 1.524 1.274 2.258m-3.437-6.094h-31.632m71.554 17.644h-29.974m29.974 0 1.62 3.445.954 2.032m-2.574-5.477h29.974m-29.974 0-2.665-5.672m-27.309 5.672 2.327 4.125.382.678.38.674m-3.089-5.477-1.585-2.811-1.613-2.861m3.198 5.672h-29.973m62.521 5.477h-29.459m29.459 0 1.254 2.668.619 1.318.308.654.306.652m-2.487-5.292h29.459m-58.918 0h-29.459m29.459 0 2.984 5.292M10.922 244.456H76.32m-65.398 0 21.614 25.554m-21.614-25.554H-8.673m19.595 0L-8.673 221.29m80.002 94.582H12.643m58.686 0 17.47 20.656m-17.47-20.656h58.685m-58.685 0-18.71-22.118m-39.976 22.118 19.412 20.656m-19.412-20.656-20.788-22.118m20.788 22.118H-8.673M88.8 336.528H32.055m56.745 0h56.744m-56.744 0 16.353 19.332m-73.098-19.332 18.17 19.332m-18.17-19.332H-8.673m143.578 54.508H83.283m51.622 0 13.572 16.045m-13.572-16.045h51.622m-51.622 0-14.415-17.043m-37.207 17.043 15.08 16.045m-15.08-16.045-16.016-17.043m16.016 17.043H31.661m116.816 16.045H98.363m50.114 0h50.114m-50.114 0 12.802 15.136m-62.916-15.136 14.225 15.136m-14.225-15.136H48.25m136.57 42.968h-46.075m46.075 0 10.846 12.823m-10.846-12.823h46.075m-46.075 0-11.446-13.533m-34.629 13.533 12.052 12.823m-12.052-12.823-12.718-13.533m12.718 13.533H92.669m102.997 12.823h-44.869m44.869 0h44.871m-44.871 0 10.294 12.17m-55.163-12.17 11.437 12.17m-11.437-12.17h-44.871m119.124 34.739h-41.605m41.605 0 8.867 10.482m-8.867-10.482h41.605m-41.605 0-9.307-11.005m-32.298 11.005 9.851 10.482m-9.851-10.482-10.342-11.005m10.342 11.005h-41.606m92.078 10.482h-40.621m40.621 0h40.62m-40.62 0 8.456 9.998m-49.077-9.998 9.397 9.998m-9.397-9.998h-40.62m105.488 28.668h-37.925m37.925 0 7.384 8.728m-7.384-8.728h37.927m-37.927 0-7.716-9.124m-30.209 9.124 8.204 8.728m-8.204-8.728-8.575-9.124m8.575 9.124h-37.926m83.235 8.728h-37.105m37.105 0h37.106m-37.106 0 7.071 8.359m-44.176-8.359 7.856 8.359m-7.856-8.359h-37.107m94.562 24.059h-34.844m34.844 0 6.244 7.381m-6.244-7.381h34.845m-34.845 0-6.502-7.687m-28.342 7.687 6.936 7.381m-6.936-7.381-7.225-7.687m7.225 7.687h-34.845m75.933 7.381H257.99m34.152 0h34.15m-34.15 0 5.999 7.093m-40.151-7.093 6.667 7.093m-6.667-7.093h-34.151m85.625 20.48h-32.226m32.226 0 5.348 6.322m-5.348-6.322h32.226m-32.226 0-1.369-1.618-.689-.815-3.496-4.132m-26.672 6.565 5.942 6.322m-5.942-6.322-6.171-6.565m6.171 6.565h-32.227m69.801 6.322H283.18m31.632 0h31.632m-31.632 0 5.154 6.094m-36.786-6.094 5.727 6.094m-5.727-6.094h-31.632m78.187 17.644h-29.974m29.974 0 4.633 5.477m-4.633-5.477h29.974m-29.974 0-4.798-5.672m-25.176 5.672 3.878 4.125.636.678.634.674m-5.148-5.477-5.33-5.672m5.33 5.672h-29.974m64.581 5.477h-29.459m29.459 0 3.924 4.64.552.652m-4.476-5.292h29.459m-58.918 0h-29.46m29.46 0 4.973 5.292M.518 450.049l15.667 12.823M.518 450.049h46.075m-46.075 0-9.19-7.523m9.19 7.523h-9.19m24.857 12.823h44.87m-44.87 0 14.869 12.17m-14.869-12.17H-8.673m67.301 34.739H17.022m41.606 0 12.808 10.482m-12.808-10.482h41.605m-41.605 0-13.444-11.005m-28.162 11.005 13.793 10.482m-13.793-10.482L2.544 486.606m14.478 11.005H-8.673m80.109 10.482H30.815m40.62 0h40.621m-40.62 0 12.215 9.998m-52.836-9.998 13.155 9.998m-13.155-9.998H-8.673m115.133 28.668H68.534m37.926 0 10.665 8.728m-10.665-8.728h37.926m-37.926 0-11.147-9.124m-26.78 9.124 11.486 8.728m-11.485-8.728-12.004-9.124m12.004 9.124H30.608m86.517 8.728H80.019m37.106 0h37.106m-37.106 0 10.213 8.359m-47.319-8.359 10.999 8.359m-10.999-8.359H42.913m103.607 24.059h-34.845m34.845 0 9.018 7.381m-9.018-7.381h34.844m-34.844 0-9.392-7.687m-25.453 7.687 9.711 7.381m-9.711-7.381-10.114-7.687m10.114 7.687H76.83m78.708 7.381h-34.152m34.152 0h34.151m-34.151 0 8.666 7.093m-42.818-7.093 9.333 7.093m-9.333-7.093h-34.15m93.322 20.48h-32.226m32.226 0 7.726 6.322m-7.726-6.322h32.227m-32.227 0-8.02-6.565m-24.206 6.565 8.32 6.322m-8.32-6.322-8.638-6.565m8.638 6.565h-32.226m72.178 6.322h-31.632m31.632 0h31.632m-31.632 0 7.445 6.094m-39.077-6.094 8.018 6.094m-8.018-6.094H125.02m84.819 17.644h-29.974m29.974 0 6.692 5.477m-6.692-5.477h29.974m-29.974 0-6.929-5.672m-23.045 5.672 7.207 5.477m-7.207-5.477-7.462-5.672m7.462 5.672h-29.974m66.64 5.477h-29.459m29.459 0 6.466 5.292m-6.466-5.292h29.459m-58.918 0h-29.459m29.459 0 6.963 5.292M7.141 569.548l11.793 7.381m-11.793-7.381h34.845m-34.845 0-12.282-7.687m12.282 7.687H-8.673m27.607 7.381h34.15m-34.15 0 11.332 7.093m-11.332-7.093H-8.673m60.327 20.48H19.427m32.227 0 10.102 6.322m-10.102-6.322H83.88m-32.226 0-10.49-6.565m-21.737 6.565 10.697 6.322m-10.697-6.322-11.106-6.565m11.106 6.565h-28.1m70.429 6.322H30.124m31.632 0h31.632m-31.632 0 9.736 6.094m-41.368-6.094 10.309 6.094m-10.31-6.094h-31.63m91.452 17.644H59.97m29.974 0 8.75 5.477m-8.75-5.477h29.974m-29.974 0-9.062-5.672m-20.912 5.672 9.266 5.477m-9.266-5.477-9.595-5.672m9.595 5.672H29.996m68.699 5.477h-29.46m29.46 0 8.454 5.292m-8.454-5.292h29.459m-58.918 0h-29.46m29.46 0 8.952 5.292m-27.813-16.441-9.942-5.878m9.942 5.878H19.868m30.507 0h30.507m-50.886 5.672 9.78 5.477m-9.78-5.477-10.128-5.672m10.128 5.672H.022m39.754 5.477H10.317m29.459 0 9.45 5.292m28.962 0h28.961m-28.961 0H49.226m28.962 0 8.655 5.116m-66.975-21.557-10.495-5.878m10.495 5.878h-28.54m8.694 5.672 10.295 5.477M.022 621.375l-8.695-4.626m8.695 4.626h-8.695m18.99 5.477 9.947 5.292m-9.947-5.292h-18.99m57.9 5.292H20.263m28.962 0 9.136 5.116m-38.098-5.116 9.617 5.116m-9.617-5.116H-8.673m49.106-22.319H9.373m31.06 0h31.06m-73.001-6.094 10.881 6.094m-10.881-6.094-7.165-4.011m7.165 4.011h-7.165m18.046 6.094H-8.673m80.165 0h31.059m-31.059 0 9.39 5.878m0 0h30.507M8.321 590.844l-11.539-6.822m11.54 6.822h32.843m-32.844 0H-8.673m-.098 6.565h.098m5.455-13.387h33.484m-33.484 0-5.455-3.224m5.455 3.224h-5.455m38.94 0H63.75m-33.485 0 10.899 6.822m0 0h32.843m98.395 24.859-7.733-5.878m7.733 5.878h-30.507m30.507 0h30.507m-53.019 5.672 7.722 5.477m-7.722-5.477-7.995-5.672m7.995 5.672h-29.973m37.695 5.477h-29.459m29.459 0 7.461 5.292m28.961 0h-28.961m28.961 0 6.732 5.116m-6.732-5.116h28.962m-81.101-16.441-8.285-5.878m8.285 5.878h-30.507m8.529 5.672 8.236 5.477m-8.236-5.477-8.529-5.672m16.765 11.149 7.957 5.292m28.963 0H136.11m28.963 0 7.212 5.116m-60.897-21.557-8.838-5.878m4.598 22.319h28.962m-28.962 0 8.175 5.116m20.787-5.116 7.694 5.116m20.865-27.435H133.61m31.059 0h31.059m-70.709-6.094 8.591 6.094m-8.591-6.094-8.914-6.322m8.914 6.322H93.388m40.223 6.094h-31.06m93.178 0h31.059m-31.059 0 7.181 5.878m-100.359-5.878-9.163-6.094m109.522 11.972h30.507m-117.311-18.294-9.255-6.565m9.255 6.565H83.88m9.508 6.322-9.508-6.322m0 0-9.872-6.565m65.686 0-8.975-6.822m8.975 6.822h-32.843m32.843 0h32.844m-65.687 0-9.616-6.822m9.616 6.822H74.008m0 0-10.257-6.822m66.968 0H97.235m33.484 0h33.485m-76.968-7.093 9.999 7.093m-10-7.093-10.405-7.381m10.406 7.381H53.085m44.15 7.093H63.751m100.453 0h33.484m-33.484 0 8.334 6.822m-108.787-6.822-10.666-7.093m119.453 13.915h32.843m-128.55-21.296-10.838-7.687m10.837 7.687H41.986m11.099 7.381-11.1-7.381m0 0-11.558-7.687m71.134 0-10.543-8.013m10.543 8.013H65.993m35.568 0h35.567m-71.135 0-11.295-8.013m11.295 8.013H30.427m0 0-12.05-8.013m12.05 8.013H-5.141m0 0h-3.532m3.532 0-3.532-2.21m99.69-5.803h-36.32m36.32 0h36.321m-84.425-8.359 11.785 8.359m-11.785-8.359-12.305-8.728m12.305 8.728H5.808m48.89 8.359h-36.32m108.96 0h36.32m-36.32 0 9.79 8.013m-118.75-8.013-12.57-8.359m12.57 8.359h-27.05m145.8 8.013h35.567m-142.087-25.1-12.862-9.124m12.862 9.124H-7.318m13.126 8.728-13.126-8.728m13.126 8.728h-14.48m-.19 8.359h.19m1.354-17.087-1.355-.901m1.355.901h-1.355m65.203-9.124-12.56-9.546m12.56 9.546H17.746m38.784 0h38.783m-77.567 0L4.29 518.091m13.457 9.546h-26.42M-9 535.642l.327.218m52.643-17.769H4.29m39.68 0h39.68m-79.36 0H-8.674m12.962 0-12.962-9.194m92.324 9.194h39.68m-39.68 0 11.662 9.546m0 0h38.784M2.544 486.606h42.64m-42.64 0-11.217-8.524m11.217 8.524H-8.673m-.308 11.005h.308m53.857-11.005h42.64m-42.64 0-14.13-11.564m-39.85 2.946.123.094m303.104 137.621-5.524-5.878m5.524 5.878h-30.507m30.507 0h30.506m-55.15 5.672 5.662 5.477m-5.662-5.477-5.863-5.672m5.863 5.672h-29.974m35.636 5.477H245.99m29.459 0 5.471 5.292m28.962 0H280.92m28.962 0 1.822 1.938 2.987 3.178m-4.809-5.116h28.962m-74.92-16.441-6.076-5.878m6.076 5.878h-30.507m6.396 5.672 6.177 5.477m-6.177-5.477-6.396-5.672m12.573 11.149 5.969 5.292m28.961 0h-28.961m28.961 0 5.289 5.116m-52.792-21.557-6.629-5.878m-3.791 22.319 6.251 5.116m-6.251-5.116h28.962m0 0 .731.649 1.455 1.289 3.584 3.178m31.178-27.435h-31.059m31.059 0h31.059m-68.418-6.094 6.3 6.094m-6.3-6.094-6.537-6.322m6.537 6.322h-31.632m37.932 6.094h-31.06m93.178 0h31.059m-31.059 0 4.971 5.878m-98.149-5.878-6.872-6.094m105.021 11.972h30.508m-110.434-18.294-6.787-6.565m6.787 6.565h-32.226m7.131 6.322-.877-.776-6.254-5.546m0 0-7.404-6.565m65.686 0-.787-.839-5.623-5.983m6.41 6.822h-32.843m32.843 0h32.843m-65.686 0-7.052-6.822m7.052 6.822h-32.843m0 0-7.693-6.822m66.969 0h-33.485m33.485 0h33.484m-74.302-7.093 7.333 7.093m-7.333-7.093-7.63-7.381m7.63 7.381h-34.15m41.483 7.093h-33.484m100.453 0h33.484m-33.484 0 5.769 6.822m-106.222-6.822-7.999-7.093m114.221 13.915h32.844m-120.545-21.296-7.947-7.687m7.947 7.687h-34.845m8.325 7.381-8.325-7.381m0 0-8.669-7.687m71.134 0-7.53-8.013m7.53 8.013h-35.567m35.567 0h35.567m-71.134 0-8.284-8.013m8.284 8.013h-35.567m0 0-9.037-8.013m72.641 0h-36.321m36.321 0h36.32m-81.283-8.359 8.642 8.359m-8.642-8.359-9.023-8.728m9.023 8.728h-37.105m45.747 8.359h-36.32m108.961 0h36.32m-36.32 0 6.777 8.013m-115.738-8.013-9.427-8.359m125.165 16.372h35.567m-132.65-25.1-9.433-9.124m9.433 9.124h-37.927m9.845 8.728-9.845-8.728m0 0-10.289-9.124m77.567 0-8.971-9.546m8.971 9.546H172.88m38.784 0h38.784m-77.568 0-9.868-9.546m9.868 9.546h-38.783m0 0-10.766-9.546m79.362 0h-39.681m39.681 0h39.68m-89.697-9.998 10.336 9.998m-10.336-9.998-10.837-10.482m10.837 10.482h-40.62m50.956 9.998h-39.681m119.042 0h39.681m-39.681 0 8.075 9.546m-127.117-9.546-11.275-9.998m138.392 19.544h38.783m-147.392-30.026-11.376-11.005m11.376 11.005h-41.606m11.823 10.482-11.823-10.482m0 0-12.41-11.005m85.28 0-10.869-11.564m10.869 11.564h-42.64m42.64 0h42.64m-85.28 0-11.956-11.564m11.956 11.564h-42.64m0 0-13.042-11.564m87.453 0h-43.727m43.727 0h43.726m-100.034-12.17 12.581 12.17m-12.581-12.17-13.257-12.823m13.257 12.823h-44.87m57.451 12.17H74.781m131.179 0h43.727m-43.727 0 9.783 11.564M74.781 475.042l-13.725-12.17m13.725 12.17H31.054m184.689 11.564h42.639M92.669 450.049 78.68 436.516m13.989 13.533H46.593m14.463 12.823-14.463-12.823m-15.54 24.993H-8.672m55.266-24.993-15.26-13.533m94.694 0-13.439-14.299m13.439 14.299H78.68m47.347 0h47.347m-94.694 0-14.783-14.299m14.783 14.299H31.332m0 0-16.126-14.299m16.127 14.299H-8.674m121.261-14.299h-48.69m48.69 0h48.691m-113.03-15.136 15.648 15.136M48.25 407.081l-16.59-16.045m16.589 16.045H-1.863m65.76 15.136H15.206m146.073 0h48.692m-48.692 0 12.095 14.299M15.206 422.217l-17.07-15.136m17.07 15.136H-8.673m182.047 14.299h47.348m-189.06-45.48-17.619-17.043m17.618 17.043H-8.673m6.81 16.045h-6.81m6.81 0-6.81-6.037m75.94-27.051L50.225 355.86m17.042 18.133H14.043m53.224 0h53.223m-106.447 0L-4.702 355.86m18.745 18.133H-8.673m58.898-18.133H-4.702m54.927 0h54.928m-109.855 0-3.97-3.84m3.97 3.84h-3.97m113.825 0h54.927m-54.927 0 15.337 18.133m0 0h53.223M-8.145 293.754H52.62m-60.765 0h-.528m.528 0-.528-.562m61.293.562h60.764m-60.764 0L32.536 270.01m383.922 345.693-1.229-2.179-.413-.734-1.671-2.965m3.313 5.878h-30.506m30.506 0h30.507m-57.282 5.672 2.714 4.125.889 1.352m-3.603-5.477-3.258-4.952-.473-.72m3.731 5.672h-29.974m33.577 5.477h-29.459m29.459 0 3.482 5.292m28.961 0h-28.961m28.961 0 1.094 1.938 1.791 3.178m-2.885-5.116h28.962m-68.739-16.441-.954-1.449-2.913-4.429m3.867 5.878h-30.507m4.264 5.672 4.118 5.477m-4.118-5.477-4.264-5.672m8.382 11.149 2.997 3.986.982 1.306m28.962 0h-28.962m28.962 0 3.365 5.116m-44.688-21.557-4.42-5.878m-12.181 22.319.549.649 3.779 4.467m-4.328-5.116h28.962m0 0 1.458 1.938 2.389 3.178m41.492-27.435h-31.06m31.06 0h31.059m-66.128-6.094 4.009 6.094m-4.009-6.094-4.16-6.322m4.16 6.322h-31.632m35.641 6.094h-31.06m93.179 0h31.059m-31.059 0 2.761 5.878m-95.94-5.878-4.581-6.094m100.521 11.972h30.507m-103.556-18.294-2.68-4.074-.544-.826-1.095-1.665m4.319 6.565H341.69m4.754 6.322-4.754-6.322m0 0-4.936-6.565m65.687 0-3.847-6.822m3.847 6.822h-32.844m32.844 0h32.843m-65.687 0-4.487-6.822m4.487 6.822h-32.843m0 0-5.129-6.822m66.969 0H365.11m33.484 0h33.484m-71.635-7.093 2.938 4.466.579.881 1.15 1.746m-4.667-7.093-4.856-7.381m4.856 7.381h-34.151m38.818 7.093h-33.485m100.453 0h33.485m-33.485 0 3.206 6.822m-103.659-6.822-5.333-7.093m108.992 13.915h32.843m-112.54-21.296-5.057-7.687m5.057 7.687h-34.844m5.549 7.381-5.549-7.381m0 0-5.78-7.687m71.134 0-2.235-3.964-.566-1.004-1.717-3.045m4.518 8.013H350.53m35.567 0h35.568m-71.135 0-5.271-8.013m5.271 8.013h-35.567m0 0-6.024-8.013m72.64 0h-36.32m36.32 0h36.32m-78.139-8.359 5.499 8.359m-5.499-8.359-5.743-8.728m5.743 8.728h-37.106m42.605 8.359h-36.32m108.96 0h36.321m-36.321 0 .957 2.035 2.809 5.978m-112.726-8.013-6.285-8.359m119.011 16.372h35.566m-123.214-25.1-6.002-9.124m6.002 9.124h-37.926m6.563 8.728-6.563-8.728m0 0-6.86-9.124m77.568 0-5.383-9.546m5.383 9.546h-38.784m38.784 0h38.783m-77.567 0-6.28-9.546m6.28 9.546h-38.784m0 0-7.177-9.546m79.362 0h-39.681m39.681 0h39.68m-85.938-9.998 6.577 9.998m-6.577-9.998-6.897-10.482m6.897 10.482h-40.621m47.198 9.998h-39.681m119.042 0h39.681m-39.681 0 4.486 9.546m-123.528-9.546-7.517-9.998m131.045 19.544h38.783m-136.104-30.026-7.239-11.005m7.239 11.005h-41.606m7.882 10.482-7.882-10.482m0 0-8.273-11.005m85.279 0-6.521-11.564m6.521 11.564h-42.639m42.639 0h42.64m-85.279 0-7.608-11.564m7.608 11.564h-42.64m0 0-8.695-11.564m87.453 0h-43.726m43.726 0h43.727m-95.46-12.17 8.007 12.17m-8.007-12.17-8.436-12.823m8.436 12.823h-44.87m52.877 12.17h-43.727m131.18 0h43.726m-43.726 0 5.434 11.564m-136.614-11.564-9.15-12.17m145.764 23.734h42.64m-151.97-36.557-8.902-13.533m8.902 13.533h-46.076m9.642 12.823-9.642-12.823m0 0-10.173-13.533m94.694 0-8.063-14.299m8.063 14.299h-47.347m47.347 0h47.348m-94.695 0-9.407-14.299m9.407 14.299h-47.347m0 0-10.751-14.299m97.382 0h-48.691m48.691 0h48.691m-107.339-15.136 9.957 15.136m-9.957-15.136-10.557-16.045m10.557 16.045h-50.114m60.071 15.136h-48.691m146.073 0h48.691m-48.691 0 6.72 14.299m-152.793-14.299-11.38-15.136m164.173 29.435h47.347m-171.963-45.48-11.211-17.043m11.211 17.043h-51.621m12.064 16.045-12.064-16.045m0 0-12.814-17.043m106.447 0-10.225-18.133m10.225 18.133h-53.223m53.223 0h53.223m-106.446 0-11.929-18.133m11.929 18.133h-53.224m0 0L160.08 355.86m109.855 0h-54.927m54.927 0h54.928m-122.574-19.332 12.719 19.332m-12.719-19.332L188.7 315.873m13.589 20.655h-56.745m69.464 19.332H160.08m164.783 0h54.927m-54.927 0 8.52 18.133M160.08 355.86l-14.536-19.332m187.839 37.465h53.224M188.7 315.873l-14.551-22.119m14.551 22.119-58.686-.001m15.53 20.656-15.53-20.656m0 0-16.63-22.118m121.529 0-13.388-23.744m13.388 23.744h-60.764m60.764 0h60.764m-121.528 0-15.62-23.744m15.62 23.744h-60.765m0 0L95.532 270.01m125.993 0h-62.996m62.996 0h62.996m-142.804-25.554 16.812 25.554m-16.812-25.554-18.144-27.579m18.144 27.579H76.32m82.209 25.554H95.532m188.989 0h62.995m-62.995 0 11.156 23.744M95.532 270.01 76.32 244.456m19.212 25.554H32.536m263.141 23.744h60.765m-232.869-76.877-19.641-29.856m19.641 29.856H55.584m20.736 27.579-20.736-27.579M32.536 270.01H-8.673m64.257-53.133-22.448-29.856m22.448 29.856H-8.673m183.401-29.856-18.285-32.426m18.285 32.426h-70.796m70.796 0h70.795m-141.591 0L82.6 154.595m21.332 32.426H33.136m0 0-24.38-32.426m24.38 32.426H-8.673m165.116-32.426H82.6m73.843 0h73.842M59.348 119.252 82.6 154.595m-23.252-35.343L33.906 80.579m25.442 38.673h-68.02M82.6 154.595H8.757m221.528 0h73.843m-73.843 0 15.238 32.426M8.757 154.595h-17.43m17.43 0-17.43-23.182m254.196 55.608h70.795M33.906 80.579 5.949 38.083m27.957 42.496H-8.672m99.414-42.496L64.287-8.833m26.455 46.916H5.95m84.793 0h84.793m-169.586 0L-8.672 15.857M5.949 38.083H-8.672M64.287-8.833h89.202m-89.202 0h-72.96m162.162 0h89.202m-89.202 0 22.046 46.916m0 0h84.793m278.158 577.62-.136-.723-.136-.726-.138-.73-.137-.734-.418-2.218-.139-.747m1.104 5.878h-30.507m30.507 0h30.507m-59.415 5.672 1.164 4.125.38 1.352m-1.544-5.477-.993-3.522-.606-2.15m1.599 5.672h-29.974m31.518 5.477h-29.459m29.459 0 1.124 3.986.369 1.306m28.962 0 .121.649.483 2.569.357 1.898m-.961-5.116h-28.962m28.962 0h28.961m-62.559-16.441-.203-.723-.206-.726-.205-.73-.207-.734-.836-2.965m1.657 5.878h-30.507m2.132 5.672 1.551 4.125.508 1.352m-2.059-5.477-2.132-5.672m4.191 11.149 1.004 2.668.741 1.972.245.652m28.962 0 .182.649.364 1.289.361 1.28.179.636.356 1.262m-1.442-5.116h-28.962m-6.181-16.441-1.65-4.388-.559-1.49m-20.572 22.319 1.811 3.854.593 1.262m-2.404-5.116h28.962m0 0 1.686 4.486.238.63m51.805-27.435h-31.06m31.06 0h31.059m-63.837-6.094 1.718 6.094m-1.718-6.094-1.783-6.322m1.783 6.322h-31.632m33.35 6.094h-31.059m93.178 0H599.5m-31.059 0 .552 5.878m-93.73-5.878-2.291-6.094m96.021 11.972H599.5m-96.679-18.294-.456-1.618-.693-2.456-.702-2.491m1.851 6.565h-32.226m2.377 6.322-.292-.776-2.085-5.546m0 0-.303-.807-.306-.811-.306-.815-1.553-4.132m65.687 0-1.283-6.822m1.283 6.822H500.97m32.844 0h32.843m-65.687 0-1.923-6.822m1.923 6.822h-32.843m0 0-1.914-5.091-.325-.863-.325-.868m66.968 0h-33.484m33.484 0h33.485m-68.969-7.093-.255-.906-.258-.911-.257-.916-1.311-4.648m2.081 7.381 1.01 3.582.249.884.248.881.493 1.746m-2-7.093h-34.151m36.151 7.093h-33.484m100.453 0H599.5m-33.484 0 .641 6.822m-101.094-6.822-2.667-7.093m103.761 13.915H599.5m-104.534-21.296-1.892-6.708-.275-.979m2.167 7.687h-34.845m2.775 7.381-.683-1.817-2.092-5.564m0 0-1.07-2.845-1.82-4.842m71.135 0-.746-3.964-.188-1.004-.572-3.045m1.506 8.013h-35.567m35.567 0h35.567m-71.134 0-2.259-8.013m2.259 8.013h-35.568m0 0-3.011-8.013m72.64 0h-36.32m36.32 0h36.32m-74.997-8.359 2.357 8.359m-2.357-8.359-2.461-8.728m2.461 8.728h-37.106m39.463 8.359h-36.32m108.96 0h36.32m-36.32 0 .191 2.035.377 4.007.185 1.971m-109.713-8.013-3.143-8.359m112.856 16.372H599.5m-113.778-25.1-1.919-6.805-.654-2.319m2.573 9.124h-37.927m3.282 8.728-3.282-8.728m0 0-1.695-4.511-1.735-4.613m77.568 0-1.794-9.546m1.794 9.546h-38.784m38.784 0h38.783m-77.567 0-2.691-9.546m2.691 9.546h-38.784m0 0-3.588-9.546m79.362 0h-39.681m39.681 0h39.68m-82.18-9.998.717 2.544 2.102 7.454m-2.819-9.998-2.956-10.482m2.956 10.482h-40.621m43.44 9.998h-39.681m119.042 0H599.5m-39.681 0 .897 9.546m-119.939-9.546-3.759-9.998m123.698 19.544H599.5m-124.817-30.026-3.102-11.005m3.102 11.005h-41.605m3.94 10.482-3.94-10.482m0 0-4.137-11.005m85.279 0-2.173-11.564m2.173 11.564h-42.639m42.639 0h42.64m-85.279 0-3.261-11.564m3.261 11.564h-42.64m0 0-4.348-11.564m87.454 0H468.32m43.727 0h43.727m-90.885-12.17 3.431 12.17m-3.431-12.17-3.616-12.823m3.616 12.823h-44.87m48.301 12.17h-43.727m131.181 0H599.5m-43.726 0 .954 10.15.132 1.414m-132.267-11.564-4.574-12.17m136.841 23.734h42.64m-138.227-36.557-3.815-13.533m3.815 13.533h-46.075m4.821 12.823-3.592-9.554-1.229-3.269m0 0-5.087-13.533m94.695 0-2.688-14.299m2.688 14.299h-47.348m47.348 0h47.346m-94.694 0-4.032-14.299m4.032 14.299h-47.347m0 0-5.376-14.299m97.383 0h-48.692m48.692 0h48.691m-101.65-15.135 4.267 15.135m-4.267-15.135-4.524-16.046m4.524 16.046-50.113-.001m54.38 15.136h-48.691m146.074 0H599.5m-48.691 0 1.343 14.299m-147.417-14.299-5.689-15.136m153.106 29.435H599.5m-154.865-45.48-4.805-17.043m4.805 17.043h-51.622m6.033 16.045-6.033-16.045m0 0-6.406-17.043m106.446 0-3.408-18.132m3.408 18.132H439.83m53.223 0h53.224m-106.447 0-5.112-18.133m5.112 18.133h-53.223m0 0-6.817-18.133m109.855.001-54.927-.001m54.927.001h54.928m-115.306-19.333 5.451 19.332m-5.451-19.332-5.824-20.655m5.824 20.655h-56.745m62.196 19.332H379.79m164.783.001H599.5m-54.927 0 1.704 18.132M379.79 355.86l-7.268-19.332m173.755 37.465H599.5m-176.057-58.12-6.236-22.119m6.236 22.119h-58.686m7.765 20.655-7.765-20.655m0 0-8.315-22.119m121.529 0-4.463-23.744m4.463 23.744h-60.764m60.764 0h60.764m-121.528 0-6.695-23.744m6.695 23.744h-60.765m0 0-8.926-23.744m125.992 0h-62.996m62.996 0h62.996m-133.197-25.553 7.205 25.553m-7.205-25.553-7.775-27.58m7.775 27.58H337.91m72.602 25.553h-62.996m188.988 0H599.5m-62.996 0 2.231 23.744M347.516 270.01l-9.606-25.553m200.825 49.297H599.5m-203.968-76.877-8.418-29.856m8.418 29.856h-67.99m10.368 27.58-10.368-27.58m0 0-11.224-29.856m141.591 0-6.095-32.426m6.095 32.426h-70.795m70.795 0h70.795m-141.59 0-9.143-32.426m9.143 32.426h-70.796m0 0-12.19-32.426m147.686 0h-73.843m73.843 0h73.843m-157.651-35.343 9.965 35.343m-9.965-35.343-10.903-38.673m10.903 38.673h-77.164m87.129 35.343h-73.843m221.529 0H599.5m-73.843 0 3.047 32.426m-224.576-32.426-13.286-35.343m237.862 67.769H599.5M357.103 80.579l-11.982-42.496m11.982 42.496h-80.8m14.539 38.673-14.539-38.673m0 0-15.975-42.496m169.586 0-8.818-46.916m8.818 46.916h-84.793m84.793 0h84.793m-169.586 0L331.893-8.833m13.228 46.916h-84.793m0 0L242.691-8.833m89.202 0h89.203m-89.203 0h-89.202m178.405 0h89.202m0 0H599.5m-89.202 0 4.409 46.916m0 0H599.5m61.014 577.62.136-.723.136-.726.137-.73.138-.734.277-1.475.14-.743.14-.747m-1.104 5.878h-30.507m30.507 0h30.507m-61.547 5.672-.515 5.477m.515-5.477.533-5.672m-.533 5.672H599.5m29.459 5.477-.063.671-.063.669-.062.666-.309 3.286m.497-5.292H599.5m57.923 5.292-.121.649-.483 2.569-.357 1.898m.961-5.116h-28.961m28.961 0h28.962m-56.378-16.441.068-.723.068-.726.069-.73.347-3.699m-.552 5.878H599.5m0 5.672v5.477m0-5.477v-5.672m0 11.149v5.292m28.962 0H599.5m28.962 0-.182 1.938-.061.642-.238 2.536M599.5 615.703v-5.878m-28.962 22.319.182 1.938.061.642.059.638.061.636.059.632.059.63m-.481-5.116H599.5m0 0v5.116m62.118-27.435h-31.059m31.059 0h31.06m-61.546-6.094.073-.776.073-.782.448-4.764m-.594 6.322-.573 6.094m.573-6.094H599.5m31.059 6.094H599.5m93.178 0h31.059m-31.059 0-.42 1.49-.209.739-.207.736-.207.734-.205.73-.206.726-.203.723m-91.521-5.878v-6.094m91.521 11.972h30.507m-89.802-18.294.617-6.565m-.617 6.565H599.5m0 6.322v-6.322m0 0v-6.565m65.686 0 1.283-6.822m-1.283 6.822h-32.843m32.843 0h32.844m-65.687 0 .641-6.822m-.641 6.822H599.5m0 0v-6.822m66.969 0h-33.485m33.485 0h33.484m-66.302-7.093-.667 7.093m.667-7.093.693-7.381m-.693 7.381H599.5m33.484 7.093H599.5m100.453 0h33.484m-33.484 0-1.923 6.822m-98.53-6.822v-7.093m98.53 13.915h32.843m-96.529-21.296.268-2.845.272-2.89.183-1.952m-.723 7.687H599.5m0 7.381v-7.381m0 0v-7.687m71.134 0 .746-3.964.188-1.004.572-3.045m-1.506 8.013h-35.567m35.567 0h35.567m-71.134 0 .185-1.971.377-4.007.191-2.035m-.753 8.013H599.5m0 0v-8.013m72.64 0h-36.32m36.32 0h36.32m-71.855-8.359-.099 1.065-.686 7.294m.785-8.359.821-8.728m-.821 8.728H599.5m36.32 8.359H599.5m108.96 0h36.32m-36.32 0-2.259 8.013M599.5 553.848v-8.359m106.701 16.372h35.568m-104.343-25.1.858-9.124m-.858 9.124H599.5m0 8.728v-8.728m0 0v-9.124m77.567 0 1.794-9.546m-1.794 9.546h-38.783m38.783 0h38.784m-77.567 0 .897-9.546m-.897 9.546H599.5m0 0v-9.546m79.361 0h-39.68m39.68 0h39.681m-78.422-9.998-.939 9.998m.939-9.998.985-10.482m-.985 10.482H599.5m39.681 9.998H599.5m119.042 0h39.681m-39.681 0-2.691 9.546M599.5 518.091v-9.998m116.351 19.544h38.784m-113.53-30.026 1.035-11.005m-1.035 11.005H599.5m0 10.482v-10.482m0 0v-11.005m85.28 0 2.173-11.564m-2.173 11.564h-42.64m42.64 0h42.639m-85.279 0 1.086-11.564m-1.086 11.564H599.5m0 0v-11.564m87.453 0h-43.727m43.727 0h43.727m-86.31-12.17-1.144 12.17m1.144-12.17 1.205-12.823m-1.205 12.823H599.5m43.726 12.17H599.5m131.18 0h43.727m-43.727 0-3.261 11.564M599.5 475.042v-12.17m127.919 23.734 42.64.001m-124.484-36.558 1.272-13.533m-1.272 13.533H599.5m0 12.823v-12.823m0 0v-13.533m94.694 0 2.688-14.299m-2.688 14.299h-47.347m47.347 0h47.348m-94.695 0 1.344-14.299m-1.344 14.299H599.5m0 0v-14.299m97.382 0h-48.691m48.691 0h48.692m-95.961-15.135-1.422 15.135m1.422-15.135 1.509-16.046m-1.509 16.046H599.5m48.691 15.135H599.5m146.074 0h48.691m-48.691 0-4.032 14.299M599.5 422.217v-15.135m142.042 29.434h47.347m-137.767-45.48 1.601-17.043m-1.601 17.043H599.5m0 16.046v-16.046m0 0v-17.043m106.447 0 3.408-18.132m-3.408 18.132h-53.224m53.224 0h53.223m-106.447 0 1.704-18.132m-1.704 18.132H599.5m0 0v-18.132m109.855 0h-54.928m54.928 0h54.927m-108.038-19.333-1.817 19.333m1.817-19.333 1.941-20.655m-1.941 20.655H599.5m54.927 19.333H599.5m164.782 0h54.928m-54.928 0-5.112 18.132M599.5 355.861v-19.333m159.67 37.465h53.223m-154.208-58.12 2.08-22.119m-2.08 22.119H599.5m0 20.655v-20.655m0 0v-22.119m121.529 0 4.463-23.744m-4.463 23.744h-60.764m60.764 0h60.764m-121.528 0 2.231-23.744m-2.231 23.744H599.5m0 0V270.01m125.992 0h-62.996m62.996 0h62.996m-123.59-25.553-2.402 25.553m2.402-25.553 2.591-27.58m-2.591 27.58H599.5m62.996 25.553H599.5m188.988 0h62.996m-62.996 0-6.695 23.744M599.5 270.01v-25.553m182.293 49.297h60.765m-175.069-76.877 2.807-29.856m-2.807 29.856H599.5m0 27.58v-27.58m0 0v-29.856m141.591 0 6.095-32.426m-6.095 32.426h-70.795m70.795 0h70.795m-141.59 0 3.047-32.426m-3.047 32.426H599.5m0 0v-32.426m147.686 0h-73.843m73.843 0h73.843m-144.365-35.343-3.321 35.343m3.321-35.343 3.635-38.673m-3.635 38.673H599.5m73.843 35.343H599.5m221.529 0h73.843m-73.843 0-9.143 32.426M599.5 154.595v-35.343m212.386 67.769h70.796M680.299 80.579l3.994-42.496m-3.994 42.496H599.5m0 38.673V80.579m0 0V38.083m169.586 0 8.818-46.916m-8.818 46.916h-84.793m84.793 0h84.793m-169.586 0 4.409-46.916m-4.409 46.916H599.5m0 0V-8.833m89.202 0h89.202m-89.202 0H599.5m178.404 0h89.203m0 0h89.202m-89.202 0-13.228 46.916m0 0h84.793m-156.13 577.62 1.642-2.913 1.671-2.965m-3.313 5.878h-30.507m30.507 0h30.506m-63.679 5.672-2.573 5.477m2.573-5.477 2.666-5.672m-2.666 5.672h-29.974m27.401 5.477h-29.459m29.459 0-1.873 3.986-.614 1.306m28.962 0h-28.962m28.962 0-1.094 1.938-1.791 3.178m2.885-5.116h28.961m-50.197-16.441 2.761-5.878m-2.761 5.878h-30.507m-2.133 5.672-2.058 5.477m2.058-5.477 2.133-5.672m-4.191 11.149-1.004 2.668-.741 1.972-.245.652m28.962 0h-28.962m28.962 0-1.811 3.854-.593 1.262m-20.377-21.557 1.65-4.388.559-1.49m-37.352 22.319-.182.649-.364 1.289-.54 1.916-.357 1.262m1.443-5.116h28.962m0 0-.244.649-.485 1.289-1.194 3.178m72.431-27.435h-31.059m31.059 0h31.06m-59.255-6.093-.364.774-.362.771-1.431 3.047-.707 1.501m2.864-6.093 2.218-4.72.753-1.603m-2.971 6.323h-31.632m28.768 6.093h-31.059m93.178 0h31.06m-31.06 0-2.913 4.429-.954 1.449m-89.311-5.878 2.291-6.093m87.02 11.971h30.508m-82.925-18.294.379-.807.382-.811 1.153-2.456.389-.826.782-1.665m-3.085 6.565h-32.226m-2.377 6.323.292-.777 2.085-5.546m0 0 .303-.807.305-.811.306-.815 1.554-4.132m65.686 0 3.847-6.822m-3.847 6.822h-32.843m32.843 0h32.843m-65.686 0 3.206-6.822m-3.206 6.822h-32.843m0 0 2.564-6.822m66.969 0h-33.484m33.484 0h33.484m-63.635-7.093-3.333 7.093m3.333-7.093 3.468-7.381m-3.468 7.381h-34.151m30.818 7.093h-33.485m100.453 0h33.485m-33.485 0-4.488 6.822m-95.965-6.822 2.667-7.093m93.298 13.915h32.844m-88.523-21.296 3.612-7.687m-3.612 7.687h-34.845m-2.774 7.381.683-1.817 2.091-5.564m0 0 1.071-2.845 1.086-2.89.734-1.952m71.134 0 2.235-3.964 2.283-4.049m-4.518 8.013h-35.568m35.568 0h35.567m-71.135 0 3.766-8.013m-3.766 8.013h-35.566m0 0 3.011-8.013m72.641 0h-36.32m36.32 0h36.32m-68.712-8.359-3.928 8.359m3.928-8.359 4.102-8.728m-4.102 8.728h-37.106m33.178 8.359H744.78m108.961 0h36.32m-36.32 0-5.271 8.013m-103.69-8.013 3.143-8.359m100.547 16.372h35.567m-94.906-25.1 1.054-2.243 3.233-6.881m-4.287 9.124h-37.926m-3.282 8.728 3.282-8.728m0 0 .42-1.119 1.275-3.392 1.735-4.613m77.566 0 5.383-9.546m-5.383 9.546h-38.783m38.783 0h38.784m-77.567 0 4.486-9.546m-4.486 9.546h-38.783m0 0 3.588-9.546m79.361 0h-39.68m39.68 0h39.681m-74.663-9.998-2.963 6.303-1.735 3.695m4.698-9.998 4.926-10.482m-4.926 10.482h-40.621m35.923 9.998h-39.681m119.042 0h39.681m-39.681 0-6.28 9.546m-112.762-9.546 3.758-9.998m109.004 19.544h38.784m-102.241-30.026 5.171-11.004m-5.171 11.004h-41.606m-3.941 10.482 3.941-10.482m0 0 4.137-11.004m85.279 0 6.522-11.565m-6.522 11.565h-42.639m42.639 0h42.64m-85.279 0 5.434-11.565m-5.434 11.565h-42.64m0 0 4.348-11.565m87.453 0h-43.727m43.727 0h43.726m-81.734-12.17-5.719 12.17m5.719-12.17 6.026-12.823m-6.026 12.823h-44.871m39.152 12.17h-43.726m131.179 0h43.727m-43.727 0-7.608 11.565m-123.571-11.565 4.574-12.17m118.997 23.735h42.64m-110.74-36.558 6.358-13.533m-6.358 13.533h-46.076m-4.821 12.823 4.821-12.823m0 0 5.087-13.533m94.695 0 8.063-14.299m-8.063 14.299h-47.348m47.348 0h47.347m-94.695 0 6.72-14.299m-6.72 14.299h-47.347m0 0 5.376-14.299m97.382 0h-48.691m48.691 0h48.691m-90.27-15.135-7.112 15.135m7.112-15.135 7.54-16.046m-7.54 16.046h-50.114m43.002 15.135h-48.691m146.073 0h48.691m-48.691 0-9.407 14.299m-136.666-14.299 5.689-15.135m130.977 29.434h47.347m-120.67-45.48 8.009-17.043m-8.009 17.043h-51.621m-6.033 16.046 6.033-16.046m0 0 6.406-17.043m106.447.001 10.225-18.133m-10.225 18.133-53.223-.001m53.223.001h53.223m-106.446-.001 8.52-18.132m-8.52 18.132h-53.224m0 0 6.817-18.132m109.855 0h-54.928m54.928 0h54.927m-100.77-19.333-9.085 19.333m9.085-19.333 9.707-20.655m-9.707 20.655h-56.744m47.659 19.333H819.21m164.782 0h54.928m-54.928 0-11.929 18.133M819.21 355.861l7.268-19.333m145.585 37.466h53.227m-132.361-58.121 10.393-22.119m-10.393 22.119h-58.686m-7.765 20.655 7.765-20.655m0 0 8.315-22.119m121.529 0 13.388-23.744m-13.388 23.744h-60.765m60.765 0h60.763m-121.528 0 11.158-23.744m-11.158 23.744h-60.764m0 0 8.926-23.744m125.991 0H914.48m62.995 0h62.995m-113.982-25.553L914.48 270.01m12.008-25.553 12.96-27.58m-12.96 27.58H861.09m53.39 25.553h-62.996m188.986 0h63m-63 0-15.62 23.744M851.484 270.01l9.606-25.553m163.76 49.297h60.77m-146.172-76.877 14.029-29.856m-14.029 29.856h-67.99m-10.368 27.58 10.368-27.58m0 0 11.224-29.856m141.588 0 18.29-32.426m-18.29 32.426h-70.793m70.793 0h70.8m-141.593 0 15.238-32.426m-15.238 32.426h-70.795m0 0 12.19-32.426m147.688 0h-73.845m73.845 0h73.84m-131.077-35.343-16.608 35.343m16.608-35.343 18.177-38.673m-18.177 38.673h-77.165m60.557 35.343h-73.843m221.528 0h73.84m-73.84 0-21.33 32.426m-200.198-32.426 13.286-35.343m186.912 67.769h70.79M1003.5 80.579l19.96-42.496m-19.96 42.496h-80.804m-14.538 38.673 14.538-38.673m0 0 15.976-42.496m169.588 0 26.45-46.916m-26.45 46.916h-84.8m84.8 0h84.79m-169.59 0 22.05-46.916m-22.05 46.916h-84.788m0 0 17.637-46.916m89.201 0h89.2m-89.2 0h-89.201m178.401 0h72.96m-14.62 46.916 14.62-22.226m-14.62 22.226h14.62m-303.101 577.62 5.524-5.878m-5.524 5.878h-30.506m30.506 0h30.507m-65.811 5.672-4.633 5.477m4.633-5.477 4.798-5.672m-4.798 5.672h-29.974m25.341 5.477h-29.459m29.459 0-4.476 5.292m28.962 0h-28.962m28.962 0-1.823 1.938-2.986 3.178m4.809-5.116h28.962m-44.017-16.441 4.971-5.878m-4.971 5.878h-30.507m-4.265 5.672-4.118 5.477m4.118-5.477 4.265-5.672m-8.383 11.149-2.997 3.986-.982 1.306m28.962 0-.549.649-3.779 4.467m4.328-5.116h-28.962m12.362-16.441 4.419-5.878m-45.743 22.319-3.365 5.116m3.365-5.116h28.962m0 0-1.458 1.938-2.389 3.178m82.746-27.435h-31.059m31.059 0h31.059m-56.964-6.093-5.154 6.093m5.154-6.093 5.348-6.323m-5.348 6.323h-31.632m26.478 6.093h-31.059m93.177 0h31.06m-31.06 0-6.076 5.878m-87.101-5.878 4.581-6.093m82.52 11.971h30.507m-76.047-18.294 1.369-1.618 4.185-4.947m-5.554 6.565H857.31m-4.754 6.323 4.754-6.323m0 0 4.936-6.565m65.687 0 .787-.839 5.623-5.983m-6.41 6.822H895.09m32.843 0h32.843m-65.686 0 5.769-6.822m-5.769 6.822h-32.844m0 0 .63-.839 4.499-5.983m66.968 0h-33.484m33.484 0h33.485m-60.97-7.093-5.999 7.093m5.999-7.093 6.244-7.381m-6.244 7.381h-34.15m28.151 7.093h-33.484m100.453 0h33.482m-33.482 0-7.052 6.822m-93.401-6.822 5.333-7.093m88.068 13.915h32.843m-80.517-21.296 6.502-7.687m-6.502 7.687h-34.845m-5.549 7.381 5.549-7.381m0 0 5.78-7.687m71.134 0 7.53-8.012m-7.53 8.012h-35.567m35.567 0h35.567m-71.134 0 6.777-8.013m-6.777 8.013h-35.567m0 0 6.024-8.013m72.64.001-36.32-.001m36.32.001h36.321m-65.57-8.36-7.071 8.359m7.071-8.359 7.384-8.728m-7.384 8.728h-37.106m30.035 8.359h-36.32m108.961.001h36.318m-36.318 0-8.284 8.012m-100.677-8.013 6.285-8.359m94.392 16.372h35.572m-85.474-25.1 7.716-9.124m-7.716 9.124h-37.927m-6.563 8.728 6.563-8.728m0 0 6.86-9.124m77.567 0 8.971-9.546m-8.971 9.546h-38.784m38.784 0h38.784m-77.568 0 8.074-9.546m-8.074 9.546h-38.783m0 0 7.177-9.546m79.361 0h-39.681m39.681 0h39.683m-70.907-9.998-8.457 9.998m8.457-9.998 8.867-10.482m-8.867 10.482h-40.62m32.163 9.998h-39.68m119.044 0h39.68m-39.68 0-9.87 9.546m-109.174-9.546 7.517-9.998m101.657 19.544h38.78m-90.95-30.026 9.307-11.004m-9.307 11.004h-41.605m-7.882 10.482 7.882-10.482m0 0 8.273-11.004m85.282 0 10.87-11.565m-10.87 11.565h-42.643m42.643 0h42.64m-85.283 0 9.783-11.565m-9.783 11.565h-42.639m0 0 8.695-11.565m87.457 0h-43.73m43.73 0h43.72m-77.16-12.17-10.29 12.17m10.29-12.17 10.85-12.823m-10.85 12.823h-44.867m34.577 12.17h-43.727m131.177 0h43.73m-43.73 0-11.95 11.565m-119.227-11.565 9.15-12.17m110.077 23.735h42.64m-97-36.558 11.45-13.533m-11.45 13.533h-46.076m-9.641 12.823 9.641-12.823m0 0 10.174-13.533m94.692 0 13.44-14.298m-13.44 14.298h-47.34m47.34 0h47.35m-94.69 0 12.09-14.299m-12.09 14.299h-47.352m0 0 10.751-14.299m97.381.001-48.69-.001m48.69.001h48.69m-84.58-15.136-12.8 15.135m12.8-15.135 13.58-16.046m-13.58 16.046h-50.11m37.31 15.135h-48.691m146.071.001h48.69m-48.69 0-14.78 14.298m-131.291-14.299 11.381-15.135m119.91 29.434h47.35m-103.57-45.48 14.41-17.042m-14.41 17.042h-51.63m-12.06 16.046 12.06-16.046m0 0 12.82-17.042m106.44 0 17.04-18.133m-17.04 18.133h-53.22m53.22 0h53.23m-106.45 0 15.34-18.133m-15.34 18.133h-53.22m0 0 13.63-18.133m109.85 0h-54.92m54.92 0h54.93m-93.5-19.333-16.35 19.333m16.35-19.333 17.47-20.655m-17.47 20.655h-56.74m40.39 19.333h-54.93m164.78 0-18.74 18.133m18.74-18.133h3.97m-3.97 0 3.97-3.841m-168.75 3.841 14.54-19.333m131.5 37.466h22.71m-80-58.121 18.71-22.119m-18.71 22.119h-58.68m-15.53 20.655 15.53-20.655m0 0 16.63-22.119m121.52 0h-60.76m60.76 0h.53m-.53 0 .53-.561m-61.29.561 20.08-23.744m-20.08 23.744h-60.76m0 0 17.85-23.744m84.61-25.553-21.62 25.553m21.62-25.553h-65.4m65.4 0h19.59m-19.59 0 19.59-23.166m-41.21 48.719h-62.99m62.99 0h41.21m-104.2 0 19.21-25.553m0 0 20.74-27.58m0 0 22.44-29.856m-22.44 29.856h64.25m-41.81-29.856 24.38-32.426m-24.38 32.426h41.81m-17.43-32.426h17.43m-17.43 0 17.43-23.182m-181.07 484.29 7.73-5.878m-7.73 5.878h-30.51m30.51 0h30.5m-67.939 5.672-6.692 5.477m6.692-5.477 6.929-5.672m-6.929 5.672h-29.974m23.282 5.477H953.01m29.459 0-6.466 5.292m28.957 0h-28.957m28.957 0-6.727 5.116m6.727-5.116h28.97m-37.84-16.441 7.18-5.878m-7.18 5.878h-30.507m-6.396 5.672-6.177 5.477m6.177-5.477 6.396-5.672m-12.573 11.149-5.969 5.292m28.962 0-.792.649-5.459 4.467m6.251-5.116h-28.962m18.542-16.441 6.629-5.878m-54.132 22.319-5.289 5.116m5.289-5.116h28.961m0 0-.731.649-5.039 4.467m93.059-27.435h-31.06m31.06 0h31.06m-54.67-6.093-7.45 6.093m7.45-6.093 7.72-6.323m-7.72 6.323h-31.636m24.186 6.093h-31.058m93.178 0h31.06m-31.06 0-8.29 5.878m-84.888-5.878 6.872-6.093m78.016 11.971h30.51m-69.17-18.294 8.02-6.565m-8.02 6.565h-32.225m-7.131 6.323.877-.777 6.254-5.546m0 0 7.404-6.565m65.691 0 8.97-6.822m-8.97 6.822h-32.85m32.85 0h32.84m-65.69 0 8.34-6.822m-8.34 6.822h-32.841m0 0 7.691-6.822m66.97 0h-33.48m33.48 0h33.48m-58.3-7.093-8.66 7.093m8.66-7.093 9.02-7.381m-9.02 7.381h-34.15m25.49 7.093h-33.49m100.45 0h33.49m-33.49 0-9.61 6.822m-90.84-6.822 8-7.093m82.84 13.915h32.84m-72.51-21.296 9.39-7.687m-9.39 7.687h-34.84m-8.33 7.381 8.33-7.381m0 0 8.67-7.687m71.13 0 10.54-8.012m-10.54 8.012h-35.57m35.57 0h35.57m-71.14 0 9.79-8.012m-9.79 8.012h-35.56m0 0 9.03-8.012m72.64 0h-36.32m36.32 0h36.32m-62.42-8.36-10.22 8.36m10.22-8.36 10.66-8.728m-10.66 8.728h-37.11m26.89 8.36h-36.32m108.96 0h36.32m-36.32 0-11.29 8.012m-97.67-8.012 9.43-8.36m88.24 16.372h35.56m-76.03-25.1 11.15-9.124m-11.15 9.124h-37.93m-9.84 8.728 9.84-8.728m0 0 10.29-9.124m77.57 0 12.56-9.546m-12.56 9.546h-38.78m38.78 0h38.78m-77.56 0 11.66-9.546m-11.66 9.546h-38.79m0 0 10.77-9.546m79.36 0h-39.68m12.21-9.998-12.21 9.998m12.21-9.998 12.81-10.482m-12.81 10.482h-40.62m28.41 9.998h-39.68m0 0 11.27-9.998m94.31 19.544h26.42m-67.3-30.026 13.45-11.004m-13.45 11.004h-41.6m-11.83 10.482 11.83-10.482m0 0 12.41-11.004m85.28 0h-42.64m42.64 0h11.21m-11.21 0 11.21-8.525m-53.85 8.525 14.13-11.565m-14.13 11.565h-42.64m0 0 13.04-11.565m58.59-12.17-14.86 12.17m14.86-12.17 15.67-12.823m-15.67 12.823h-44.87m44.87 0h24.86m-39.72 12.17h-43.73m43.73 0h39.72m-83.45 0 13.72-12.17m69.86 15.116-.13.094m-9.19-28.033h-46.07m46.07 0h9.19m-9.19 0 9.19-7.523m-69.73 20.346 14.47-12.823m0 0 15.26-13.533m0 0 16.12-14.298m-16.12 14.298h40m-6.81-29.434-17.07 15.136m17.07-15.136h6.81m-6.81 0 6.81-6.037m-23.88 21.173h23.88m-59.05 193.485 9.95-5.878m-9.95 5.878h-30.5m30.5 0h30.51m-70.07 5.672-8.75 5.477m8.75-5.477 9.06-5.672m-9.06 5.672h-29.98m21.23 5.477h-29.46m29.46 0-8.46 5.292m28.96 0h-28.96m28.96 0-8.65 5.116m8.65-5.116h28.96m-31.65-16.441 9.39-5.878m-9.39 5.878h-30.51m-8.53 5.672-8.23 5.477m8.23-5.477 8.53-5.672m-16.76 11.149-7.96 5.292m28.96 0h-28.96m28.96 0-8.17 5.116m3.93-21.557 8.84-5.878m-62.52 22.319-7.22 5.116m7.22-5.116h28.96m0 0-7.7 5.116m103.38-27.435h-31.06m31.06 0h31.06m-52.39-6.093-9.73 6.093m9.73-6.093 10.11-6.323m-10.11 6.323h-31.63m21.9 6.093h-31.06m93.18 0-10.5 5.878m10.5-5.878h18.04m-111.22 0 9.16-6.093m73.52 11.971h28.54m-60.32-18.294 10.49-6.565m-10.49 6.565h-32.23m-9.51 6.323 9.51-6.323m0 0 9.87-6.565m65.69 0 11.54-6.822m-11.54 6.822h-32.84m32.84 0h16.99m-49.83 0 10.89-6.822m-10.89 6.822h-32.85m0 0 10.26-6.822m44.82-7.093-11.34 7.093m11.34-7.093 11.79-7.381m-11.79 7.381h-34.15m34.15 0h27.6m-38.94 7.093h33.49m-33.49 0h-33.48m66.97 0 5.45-3.224m-5.45 3.224h5.45m-72.42 0 10.67-7.093m45.94-7.381 12.28-7.687m-12.28 7.687h-34.85m34.85 0h15.81m-61.75 7.381 11.09-7.381m0 0 11.56-7.687m35.57 0h-35.57m35.57 0 3.53-2.21m-3.53 2.21h3.53m-39.1 0 12.05-8.012m12.57-8.36-12.57 8.36m12.57-8.36 13.13-8.728m-13.13 8.728h14.48m-27.05 8.36h27.05m.19 0h-.19m-1.35-17.088h1.35m-1.35 0 1.35-.901m.33-.218-.33.218m-8.69 85.515-10.3 5.477m10.3-5.477h8.69m-8.69 0 8.69-4.626m-18.99 10.103-9.94 5.292m9.94-5.292h18.99m-57.9 5.292-9.13 5.116m9.13-5.116h28.97m0 0-9.62 5.116m9.62-5.116h28.93M200.767 637.26h-28.481m28.481 0h28.481m-49.985 4.949-1.723-1.222-5.254-3.727m6.977 4.949h-28.016m21.039-4.949h-28.481m7.442 4.949-1.837-1.222-.925-.614-4.68-3.113m0 0h-28.481m0 0H86.843m142.405 0h28.481m-170.886 0H58.362m0 0 8.838 4.949m-8.838-4.949h-28.48m37.318 4.949H39.184m275.507-4.949h-28.482m28.482 0h28.481m-51.846 4.949-1.263-1.222-.636-.614-3.218-3.113m5.117 4.949H263.31m22.899-4.949h-28.48m5.581 4.949-5.581-4.949m85.443 0h28.481m56.961 0h-28.481m28.481 0h28.481m-53.705 4.949-.402-.609-.402-.613-.405-.614-2.048-3.113m3.257 4.949h-28.016m24.759-4.949h-28.48m3.721 4.949-3.721-4.949m85.442 0h28.482m56.961 0h-28.481m28.481 0h28.481m-55.567 4.949-1.395-4.949m1.395 4.949h-28.015m26.62-4.949h-28.48m1.86 4.949-.23-.609-.23-.613-.231-.614-1.169-3.113m85.442 0H599.5m56.962 0h-28.481m28.481 0h28.48m-57.426 4.949.465-4.949m-.465 4.949H599.5m28.481-4.949H599.5m0 4.949v-4.949m85.442 0h28.482m56.962 0h-28.481m28.481 0h28.481m-59.288 4.949.574-1.222 1.163-2.474.589-1.253m-2.326 4.949h-28.016m30.342-4.949h-28.481m-1.861 4.949.23-.609.23-.613.231-.614 1.17-3.113m85.443 0h28.48m56.962 0h-28.481m28.481 0h28.482m-61.149 4.949 1.034-1.222.52-.614 2.632-3.113m-4.186 4.949h-28.016m32.202-4.949h-28.481m-3.721 4.949.459-.609 3.262-4.34m85.444 0h28.48m56.962 0h-28.481m28.481 0h28.477m-63.005 4.949 1.494-1.222.751-.614 3.802-3.113m-6.047 4.949h-28.016m34.063-4.949h-28.481m-5.582 4.949.688-.609 4.894-4.34m85.439 0h28.48m56.97 0h-28.48m28.48 0h28.48m-64.87 4.949 7.91-4.949m-7.91 4.949h-28.02m35.93-4.949h-28.49m-7.44 4.949 1.84-1.222.92-.614 4.68-3.113m85.45 0h28.48m18.71 4.949 9.77-4.949m-9.77 4.949h-28.01m28.01 0h19.84m-10.07-4.949h-28.48m28.48 0 10.07-5.104m-10.07 5.104h10.07m-47.85 4.949 2.29-1.222 7.01-3.727M39.184 642.209l-2.297-1.222-7.006-3.727m0 0H1.401m0 0-10.074-5.104M1.4 637.26H-8.673m0-236.216v6.037m0-6.037v-10.008m0 16.045v15.136m0-31.181v-17.043m0 0V355.86m0 162.231v9.546m0-9.546v-9.194m0 133.312v-4.949m0 0v-5.104m0 0-.024-.012h.024m0 .012v-.012m0 0v-5.292m0 0v-5.477m0 0v-4.626m0 0v-1.046m0 0v-5.878m0 0v-6.094m0 0v-4.011m0 0v-2.311m0 0v-6.565m0 0v-6.822m0 0v-3.224m0 0v-3.869m0 0v-7.381m0 0v-7.687m0 0v-2.21m0 0v-5.803m0 0v-8.359m0 0v-8.728m0 0v-.901m0 0v-8.223m0-19.544v-10.482m0 10.482v.804m0-11.286v-11.005m0 0v-8.524m0 0v-3.04m0 0v-12.17m0 0v-12.823m0 0v-7.523m0 0v-6.01m0 0v-14.299m0-66.357v-3.84m0 0v-15.492m0 0v-20.656m0 0v-22.118m0 0v-.562m0 0V270.01m0 0v-25.554m0 0V221.29m0 0v-4.413m0 0v-29.856m0 0v-32.426m0 0v-23.182m0 0v-12.161m0 0V80.579m0 0V38.083m0 0V15.857m0 0v-24.69m0 0V-9H1207.67v.168m0 516.925v-10.482m0 10.482v.804m0 0v9.194m0 0v9.546m0 0v8.223m0 0v.901m0 0v8.728m0 0v8.36m0 0v5.802m0 0v2.21m0 0v7.687m0 0v7.381m0 0v3.869m0 0v3.224m0 0v6.822m0 0v6.565m0 0v2.311m0 0v4.012m0 0v6.093m0 0v5.878m0 0v1.046m0 0v4.626m0 0v5.477m0 0v5.292m0 0h.03l-.03.012m0-.012v.012m0 0v5.104m0 0v4.949m0-651.041v24.69m0 0v22.225m0 0v42.496m0 0v38.673m0 0v12.161m0 0v23.182m0 0v32.426m0 0v29.856m0 0v4.414m0 0v23.166m0 0v25.553m0 0v23.183m0 0v.561m0 0v22.119m0 0v20.655m0 0v15.492m0 0v3.841m0 0v18.133m0 0v17.042m0 0v10.009m0 0v6.037m0 0v15.136m0 0v14.298m0 0v6.01m0 0v7.523m0 0v12.823m0 0v12.17m0 0v3.04m0 0v8.525m0 0v11.004"/><defs><linearGradient id="a" x1="599.5" x2="599.5" y1="647" y2="187.064" gradientUnits="userSpaceOnUse"><stop stop-color="#E4FF3F" stop-opacity="0"/><stop offset="1" stop-color="#E4FF3F"/></linearGradient></defs></svg>